<svg xmlns="http://www.w3.org/2000/svg" xmlns:xlink="http://www.w3.org/1999/xlink" width="40" height="44" viewBox="0 0 40 44"><defs><path fill="#434343" id="7hrwa" d="M739.51 260.2l-.23.22a39.7 39.7 0 0 1 3.46-.85.63.63 0 0 1 .68.92c-.05.09-1.27 2.32-4.28 4.81-.62.51-1.34 1.05-2.17 1.6 1.32.02 2.65.15 3.98.39a.63.63 0 0 1 .36 1.04c-.07.07-1.6 1.72-4.54 3.03-1.79.8-4.35 1.58-7.59 1.58-1.13 0-2.34-.1-3.63-.32l1.1 7.69a.63.63 0 0 1-.63.72h-4.04a.63.63 0 0 1-.62-.72l1.1-7.69c-1.3.22-2.5.32-3.64.32-3.23 0-5.8-.77-7.59-1.58a14.67 14.67 0 0 1-4.53-3.03.63.63 0 0 1 .35-1.04c1.34-.24 2.67-.37 3.98-.39a24.76 24.76 0 0 1-2.17-1.6c-3-2.49-4.22-4.72-4.27-4.81a.63.63 0 0 1 .67-.92c1.22.24 2.37.53 3.46.85a6.83 6.83 0 0 1-.23-.22c-2.46-2.46-4.36-8.1-4.44-8.34a.63.63 0 0 1 .58-.83h1.06l-.7-3.04a.63.63 0 0 1 .75-.75l3.04.7v-1.06a.63.63 0 0 1 .83-.58c.22.07 5.07 1.7 7.75 3.9a6.82 6.82 0 0 1-.05-.8c0-3.47 2.65-8.8 2.76-9.03a.63.63 0 0 1 1-.18l.74.75 1.66-2.64a.63.63 0 0 1 1.07 0l1.65 2.64.75-.75a.63.63 0 0 1 1 .18c.1.22 2.76 5.56 2.76 9.04 0 .26-.02.53-.05.79 2.67-2.2 7.52-3.83 7.74-3.9a.63.63 0 0 1 .83.58v1.06l3.04-.7a.63.63 0 0 1 .76.75l-.7 3.04h1.05a.63.63 0 0 1 .58.83c-.08.24-1.98 5.88-4.44 8.34zm-.5-8.96c.73-.08 1.4-.13 2-.16l.55-2.39-2.39.55c-.03.6-.08 1.27-.16 2zm-16.3-9.34c.4.44.84.95 1.3 1.52.45-.57.9-1.08 1.29-1.52l-1.3-2.08zm-4.14 7.5a5.4 5.4 0 0 0 1.5 3.76.63.63 0 0 1 1-.17l.74.75 1.66-2.64a.63.63 0 0 1 1.07 0l1.42 2.27c.94-1.31.75-3.22-.58-5.68a.63.63 0 1 1 1.11-.6 10 10 0 0 1 1.3 3.98c.05.65-.02 1.25-.19 1.8.14.05.26.15.33.29a5.4 5.4 0 0 0 1.5-3.75c0-2.44-1.52-6.08-2.25-7.68a35.9 35.9 0 0 0-2.39 2.72l.2.28a.63.63 0 0 1-1.01.74 34.4 34.4 0 0 0-3.16-3.74c-.72 1.6-2.25 5.24-2.25 7.68zm8.96 16.49c-.1.25-.21.5-.35.72a5.43 5.43 0 0 0 2.25-4.4c0-2.44-1.52-6.09-2.25-7.68-.57.59-1.47 1.56-2.39 2.72l.2.28a.63.63 0 0 1-1.01.73 34.36 34.36 0 0 0-3.16-3.73c-.72 1.6-2.25 5.24-2.25 7.68a5.44 5.44 0 0 0 5.32 5.43c1.28-.52 2.11-1.26 2.46-2.2.46-1.24.13-2.9-.97-4.95a.63.63 0 1 1 1.11-.6c1.28 2.38 1.63 4.4 1.04 6zm-2.57 2.94a6.72 6.72 0 0 1-1.91 0c.4.43.72.8.95 1.09.24-.29.56-.66.96-1.09zm-.72 3.53l-.24-.06-.23.06-.3 2.02h1.06zm-.24-16.14c.46-.57.9-1.08 1.3-1.52l-1.3-2.08-1.3 2.07c.4.45.85.96 1.3 1.53zm-17.56-7.53l.55 2.39c.6.03 1.28.08 2 .16-.08-.73-.13-1.4-.16-2zm2.94 10.62a5.4 5.4 0 0 0 7.6.08c.55-1.27.61-2.38.2-3.29-.56-1.2-1.97-2.15-4.2-2.82a.63.63 0 1 1 .36-1.2c2.6.77 4.27 1.95 4.98 3.5.11.25.2.5.27.77a5.5 5.5 0 0 0-1.52-4.72c-1.73-1.72-5.38-3.22-7.03-3.84.01.83.06 2.15.24 3.61l.34.06a.63.63 0 0 1-.2 1.24 34.4 34.4 0 0 0-4.87-.41c.61 1.64 2.11 5.3 3.83 7.02zm7.93 2.9c0-.49.05-1.01.14-1.55a6.64 6.64 0 0 1-4.03 1.5 33.7 33.7 0 0 1 4.28 2.3c-.25-.7-.4-1.46-.4-2.25zm5.12 9.14a31.78 31.78 0 0 1-9.15-3.11h-.02c-1.52-.13-3.08-.1-4.67.1.7.54 1.79 1.27 3.21 1.9 2.28 1 5.9 1.96 10.63 1.1zm.04-1.28c-.7-.78-1.79-1.87-3.28-3.02a33.4 33.4 0 0 0-12.63-5.9c.64.83 1.67 2 3.16 3.23 2.42 1.99 6.54 4.51 12.75 5.7zm2.83 9.7l-.6-4.13h-1.4l-.6 4.12zm9.45-11.54h-.03a31.78 31.78 0 0 1-9.15 3.12c4.77.85 8.4-.12 10.69-1.14a15.3 15.3 0 0 0 3.15-1.88c-1.58-.19-3.14-.22-4.66-.1zm-5.98-1.15a24.78 24.78 0 0 0-3.24 3c6.22-1.19 10.33-3.71 12.75-5.7a20.3 20.3 0 0 0 3.17-3.24c-6 1.46-10.18 4-12.68 5.94zm1.92-4.87c0 .79-.13 1.55-.39 2.25a33.69 33.69 0 0 1 4.28-2.3 6.64 6.64 0 0 1-4.03-1.5c.1.54.14 1.06.14 1.55zm11.77-9.92c-1.05.02-2.92.1-4.87.41a.63.63 0 0 1-.2-1.24l.34-.06c.17-1.46.22-2.78.23-3.6-1.64.6-5.3 2.1-7.02 3.83a5.4 5.4 0 0 0-1.52 4.72c.06-.27.15-.52.27-.77.7-1.55 2.38-2.73 4.97-3.5a.63.63 0 1 1 .36 1.2c-2.22.67-3.63 1.62-4.19 2.82-.42.91-.35 2.02.2 3.3 2.12 2.03 5.5 2 7.6-.09 1.71-1.72 3.21-5.38 3.83-7.02z"/></defs><g><g transform="translate(-704 -238)"><use fill="#434343" xlink:href="#7hrwa"/></g></g></svg>