<svg xmlns="http://www.w3.org/2000/svg" xmlns:xlink="http://www.w3.org/1999/xlink" width="40" height="40" viewBox="0 0 40 40"><defs><path id="wg7ya" d="M1172.7 267.41l-3.8 5.45-2.67-2.2a.68.68 0 1 0-.86 1.05l3.24 2.67a.68.68 0 0 0 .99-.14l4.21-6.05a.68.68 0 0 0-1.11-.78z"/><path id="wg7yb" d="M1178 271.19a8.82 8.82 0 0 1-13.49 7.45h-25.83a.68.68 0 0 1-.68-.67v-34.58c0-.38.3-.68.68-.68h3.39v-2.03c0-.38.3-.68.68-.68h4.74c.38 0 .68.3.68.68v2.03h14.91v-2.03c0-.38.3-.68.68-.68h4.75c.37 0 .68.3.68.68v2.03h3.39c.37 0 .67.3.67.68v19.99a8.82 8.82 0 0 1 4.75 7.8zm-13.56-25.77h3.4v-4.06h-3.4zm-21.02 0h3.4v-4.06h-3.4zm-4.06 4.07h32.54v-5.42h-2.71v2.03c0 .38-.3.68-.68.68h-4.75a.68.68 0 0 1-.68-.68v-2.03h-14.91v2.03c0 .38-.3.68-.68.68h-4.74a.68.68 0 0 1-.68-.68v-2.03h-2.71zm0 27.8h23.47l-.32-.36-.15-.18a8.53 8.53 0 0 1-.37-.5c-.05-.06-.1-.12-.13-.18a8.55 8.55 0 0 1-.32-.52l-.12-.21a8.83 8.83 0 0 1-.25-.51l-.12-.26-.18-.5-.07-.17h-18.05v-19.66h25.76v8.17a8.61 8.61 0 0 1 1.48 0l.28.04a8.84 8.84 0 0 1 1.22.24l.4.11v-11.95h-32.53zm27.76-14.66l.03-.01v-.93h-4.74v3.87c.04-.06.1-.1.15-.16l.35-.4.23-.21.35-.32.27-.21a9.11 9.11 0 0 1 .98-.67l.37-.21.22-.1c.57-.28 1.16-.5 1.79-.65zm-6.09 5.22l.02-.05h-4.74v4.74h4.17l-.01-.15-.05-.33-.01-.13a8.26 8.26 0 0 1 0-1.63l.07-.38.07-.48.15-.6.06-.23c.08-.26.17-.51.27-.76zm-16.93 4.7h4.75v-4.75h-4.75zm0-6.1h4.75v-4.76h-4.75zm23.05-10.86h-4.74v4.75h4.74zm-6.1 0h-4.74v4.75h4.74zm0 6.1h-4.74v4.75h4.74zm-10.85 4.75h4.75v-4.75h-4.75zm4.75-10.85h-4.75v4.75h4.75zm-6.1 0h-4.75v4.75h4.75zm1.35 16.95h4.75v-4.74h-4.75zm26.44-1.35a7.46 7.46 0 0 0-5.07-7.06l-.04-.02a7.35 7.35 0 0 0-.7-.2l-.07-.01a7.55 7.55 0 0 0-.67-.11l-.12-.02a7.23 7.23 0 0 0-2.01.07h-.02c-1.09.18-2.1.6-2.99 1.21l-.08.07c-.18.13-.36.26-.52.4l-.16.14a7.3 7.3 0 0 0-.41.4l-.14.16c-.14.15-.27.3-.39.47l-.1.14c-.13.18-.26.37-.38.57l-.09.15-.06.11a7.46 7.46 0 0 0-.51 1.2l-.03.08a7.5 7.5 0 0 0-.18.67l-.02.06c-.04.23-.08.46-.1.69l-.01.06a7.35 7.35 0 0 0 .02 1.67v.06c.05.3.1.6.18.9l.03.12.18.54.1.27c.08.2.17.4.27.59l.08.16c.12.24.27.46.42.68l.19.26a7.35 7.35 0 0 0 .93 1.02l.22.2a7.5 7.5 0 0 0 4.8 1.75 7.47 7.47 0 0 0 7.45-7.45z"/></defs><g><g transform="translate(-1138 -240)"><use fill="#fff" xlink:href="#wg7ya"/></g><g transform="translate(-1138 -240)"><use fill="#fff" xlink:href="#wg7yb"/></g></g></svg>