<svg xmlns="http://www.w3.org/2000/svg" xmlns:xlink="http://www.w3.org/1999/xlink" width="24" height="26" viewBox="0 0 24 26"><defs><path id="2s4ta" d="M637 1089.14v23.15c0 .23-.2.42-.43.42h-23.14a.43.43 0 0 1-.43-.42v-23.15c0-.23.2-.43.43-.43h3v-1.28c0-.24.19-.43.43-.43h3c.23 0 .43.2.43.43v1.28h9.42v-1.28c0-.24.2-.43.43-.43h3c.24 0 .43.2.43.43v1.28h3c.24 0 .43.2.43.43zm-6.43 1.29h2.14v-2.57h-2.14zm-13.28 0h2.14v-2.57h-2.14zm-3.43 3h22.28v-3.86h-2.57v1.29c0 .23-.19.43-.43.43h-3a.43.43 0 0 1-.43-.43v-1.29h-9.42v1.29c0 .23-.2.43-.43.43h-3a.43.43 0 0 1-.43-.43v-1.29h-2.57zm22.28 18.43v-17.57h-22.28v17.57z"/><path id="2s4tb" d="M633.15 1096.86v12.43h-16.29v-12.43zm-7.72 3.86h3v-3h-3zm3 .85h-3v3h3zm-6.86 3h3v-3h-3zm0-3.85h3v-3h-3zm-3.85 0h3v-3h-3zm0 3.85h3v-3h-3zm3 .86h-3v3h3zm3.85 0h-3v3h3zm3.86 0h-3v3h3zm3.86 0h-3v3h3zm0-3.86h-3v3h3zm-3-3.85v3h3v-3z"/></defs><g><g transform="translate(-613 -1087)"><use fill="#c4c4c4" xlink:href="#2s4ta"/></g><g transform="translate(-613 -1087)"><use fill="#c4c4c4" xlink:href="#2s4tb"/></g></g></svg>