<svg xmlns="http://www.w3.org/2000/svg" xmlns:xlink="http://www.w3.org/1999/xlink" width="26" height="26" viewBox="0 0 26 26"><defs><path id="i9oaa" d="M931 1100c0 7.17-5.83 13-13 13s-13-5.83-13-13 5.83-13 13-13 13 5.83 13 13zm-.87 0c0-6.69-5.44-12.13-12.13-12.13a12.15 12.15 0 0 0-12.13 12.13c0 6.69 5.44 12.13 12.13 12.13s12.13-5.44 12.13-12.13z"/><path id="i9oab" d="M919.73 1099.95a1.73 1.73 0 1 1-3.4.43h-3.1a.43.43 0 1 1 0-.86h3.1c.16-.61.63-1.08 1.24-1.24v-4.4a.43.43 0 1 1 .86 0v4.4c.75.2 1.3.86 1.3 1.67zm-.86 0a.87.87 0 1 0-1.74 0 .87.87 0 0 0 1.74 0z"/><path id="i9oac" d="M918 1091.28c.24 0 .44-.2.44-.43v-.44a.43.43 0 1 0-.87 0v.44c0 .24.2.43.43.43z"/><path id="i9oad" d="M918 1108.61c-.24 0-.43.2-.43.43v.44a.43.43 0 1 0 .87 0v-.44c0-.24-.2-.43-.44-.43z"/><path id="i9oae" d="M927.54 1099.51h-.44a.43.43 0 1 0 0 .87h.44a.43.43 0 1 0 0-.87z"/><path id="i9oaf" d="M908.9 1099.51h-.44a.43.43 0 1 0 0 .87h.44a.43.43 0 1 0 0-.87z"/><path id="i9oag" d="M924.43 1092.9l-.3.3a.43.43 0 1 0 .61.62l.3-.31a.43.43 0 1 0-.6-.61z"/><path id="i9oah" d="M911.26 1106.08l-.3.3a.43.43 0 1 0 .61.62l.3-.31a.43.43 0 1 0-.6-.61z"/><path id="i9oai" d="M924.74 1106.08a.43.43 0 1 0-.61.61l.3.3a.43.43 0 0 0 .62 0 .43.43 0 0 0 0-.6z"/><path id="i9oaj" d="M911.57 1092.9a.43.43 0 1 0-.61.61l.3.3a.43.43 0 0 0 .62 0 .43.43 0 0 0 0-.6z"/></defs><g><g transform="translate(-905 -1087)"><use fill="#c4c4c4" xlink:href="#i9oaa"/></g><g transform="translate(-905 -1087)"><use fill="#c4c4c4" xlink:href="#i9oab"/></g><g transform="translate(-905 -1087)"><use fill="#c4c4c4" xlink:href="#i9oac"/></g><g transform="translate(-905 -1087)"><use fill="#c4c4c4" xlink:href="#i9oad"/></g><g transform="translate(-905 -1087)"><use fill="#c4c4c4" xlink:href="#i9oae"/></g><g transform="translate(-905 -1087)"><use fill="#c4c4c4" xlink:href="#i9oaf"/></g><g transform="translate(-905 -1087)"><use fill="#c4c4c4" xlink:href="#i9oag"/></g><g transform="translate(-905 -1087)"><use fill="#c4c4c4" xlink:href="#i9oah"/></g><g transform="translate(-905 -1087)"><use fill="#c4c4c4" xlink:href="#i9oai"/></g><g transform="translate(-905 -1087)"><use fill="#c4c4c4" xlink:href="#i9oaj"/></g></g></svg>