<svg xmlns="http://www.w3.org/2000/svg" xmlns:xlink="http://www.w3.org/1999/xlink" width="28" height="28" viewBox="0 0 28 28"><defs><path id="9zkra" d="M1774 580c-1.19 0-2.33.15-3.43.42v9.8l12.26-7.08A13.94 13.94 0 0 0 1774 580z"/><path id="9zkrc" d="M1784.1 584.3l-8.24 4.76 12 6.92a13.95 13.95 0 0 0-3.76-11.68z"/><path id="9zkre" d="M1760.45 590.48l8.49 4.9v-14.43a14.03 14.03 0 0 0-8.49 9.53z"/><path id="9zkrg" d="M1779.51 593.06v13.81a14.03 14.03 0 0 0 8-9.19z"/><path id="9zkri" d="M1760.12 592.18a13.96 13.96 0 0 0 4.22 11.95l8.24-4.76z"/><path id="9zkrk" d="M1765.67 605.26a13.94 13.94 0 0 0 12.19 2.2v-9.24z"/><linearGradient id="9zkrb" x1="1776.7" x2="1776.7" y1="580" y2="590.22" gradientUnits="userSpaceOnUse"><stop offset="0" stop-color="#e34752"/><stop offset="1" stop-color="#c4121e"/></linearGradient><linearGradient id="9zkrd" x1="1781.93" x2="1781.93" y1="584.62" y2="595.9" gradientUnits="userSpaceOnUse"><stop offset="0" stop-color="#ffce9c"/><stop offset="1" stop-color="#f08c36"/></linearGradient><linearGradient id="9zkrf" x1="1764.69" x2="1764.69" y1="581.34" y2="595.23" gradientUnits="userSpaceOnUse"><stop offset="0" stop-color="#e49cff"/><stop offset="1" stop-color="#ae57ea"/></linearGradient><linearGradient id="9zkrh" x1="1783.51" x2="1783.51" y1="593.43" y2="606.77" gradientUnits="userSpaceOnUse"><stop offset="0" stop-color="#ffecb7"/><stop offset="1" stop-color="#fcd159"/></linearGradient><linearGradient id="9zkrj" x1="1766.29" x2="1766.29" y1="592.5" y2="604.05" gradientUnits="userSpaceOnUse"><stop offset="0" stop-color="#9ca8ff"/><stop offset="1" stop-color="#5769ea"/></linearGradient><linearGradient id="9zkrl" x1="1771.77" x2="1771.77" y1="598.48" y2="607.93" gradientUnits="userSpaceOnUse"><stop offset="0" stop-color="#8bda94"/><stop offset="1" stop-color="#3bab3e"/></linearGradient></defs><g><g transform="translate(-1760 -580)"><use fill="url(#9zkrb)" xlink:href="#9zkra"/></g><g transform="translate(-1760 -580)"><use fill="url(#9zkrd)" xlink:href="#9zkrc"/></g><g transform="translate(-1760 -580)"><use fill="url(#9zkrf)" xlink:href="#9zkre"/></g><g transform="translate(-1760 -580)"><use fill="url(#9zkrh)" xlink:href="#9zkrg"/></g><g transform="translate(-1760 -580)"><use fill="url(#9zkrj)" xlink:href="#9zkri"/></g><g transform="translate(-1760 -580)"><use fill="url(#9zkrl)" xlink:href="#9zkrk"/></g></g></svg>