<svg xmlns="http://www.w3.org/2000/svg" xmlns:xlink="http://www.w3.org/1999/xlink" width="47" height="40" viewBox="0 0 47 40"><defs><path fill="#434343" id="jx75a" d="M975.97 266.66v7.85c0 .4-.33.73-.73.73h-2.4v.05a4.66 4.66 0 0 1-9.32 0v-.05h-16.58v.05a4.66 4.66 0 0 1-9.31 0v-.05h-3.97c-.84 0-1.52-.68-1.52-1.52v-1.61h-2.4a.74.74 0 1 1 0-1.48h7.06a.74.74 0 1 1 0 1.48h-3.2v1.61c0 .03.03.05.06.05h4.23a4.67 4.67 0 0 1 8.8 0h15.26v-5.54a.74.74 0 0 1 1.47 0v5.54h.35a4.67 4.67 0 0 1 8.8 0h1.93v-3.23h-.83a2.3 2.3 0 0 1-2.3-2.3v-1.58c0-.4.32-.73.73-.73h2.29a2.4 2.4 0 0 0-2.29-1.67h-8.68v.83a.74.74 0 0 1-1.47 0v-13.33a.05.05 0 0 0-.05-.05h-28.24a.05.05 0 0 0-.05.05v13.33a.74.74 0 0 1-1.47 0v-13.33c0-.84.68-1.52 1.52-1.52h10.3l-6.26-2.5a.74.74 0 1 1 .55-1.37l5.12 2.05c-1.56-1-3.1-2.1-3.7-2.88a3.43 3.43 0 0 1 5.45-4.15c.84 1.1 1.94 4.18 2.66 6.35.71-2.17 1.82-5.26 2.65-6.35a3.43 3.43 0 0 1 5.45 4.15c-.59.77-2.13 1.88-3.7 2.88l5.13-2.05a.74.74 0 1 1 .55 1.36l-6.26 2.5h10.3c.84 0 1.52.69 1.52 1.53v1.62h5.54a3.1 3.1 0 0 1 3.09 3.08v.79c0 .35-.25.65-.58.72l1.21 4.86a3.88 3.88 0 0 1 3.3 3.83zm-29.45-18.05c-.74-2.26-1.85-5.4-2.57-6.33a1.95 1.95 0 0 0-3.1 2.37c.25.33 1.11 1.16 4.01 2.97a81 81 0 0 0 1.66 1zm4.18-1c2.9-1.8 3.76-2.63 4.01-2.96a1.96 1.96 0 0 0-3.1-2.37c-.72.93-1.83 4.07-2.57 6.33.5-.29 1.07-.63 1.66-1zm12.72 8.9h7.16v-.05c0-.89-.73-1.61-1.62-1.61h-5.54zm7.74 6.28l-1.2-4.8h-6.54v4.8zm-25.69 12.5a3.2 3.2 0 1 0-6.38.01 3.2 3.2 0 0 0 6.38 0zm25.9 0a3.2 3.2 0 1 0-6.39.01 3.2 3.2 0 0 0 6.38 0zm3.13-6.22v-1.67h-1.67v.83c0 .46.38.84.84.84z"/><path fill="#434343" id="jx75b" d="M954 261a6 6 0 1 1-12.01-.01A6 6 0 0 1 954 261zm-1.26 0a4.75 4.75 0 1 0-9.5.01 4.75 4.75 0 0 0 9.5-.01z"/><path id="jx75c" d="M950.2 262.32l-2.02-1.84v-2.45c0-.35-.3-.63-.69-.63-.38 0-.69.28-.69.63v2.7c0 .18.07.34.2.46l2.22 2.02c.13.13.31.19.49.19.17 0 .35-.06.49-.19a.6.6 0 0 0 0-.9z"/><path fill="#434343" id="jx75d" d="M942.29 273.78a1.52 1.52 0 1 0 0 3.04 1.52 1.52 0 0 0 0-3.04z"/><path fill="#434343" id="jx75e" d="M968.18 273.78a1.52 1.52 0 1 0 0 3.04 1.52 1.52 0 0 0 0-3.04z"/><path fill="#434343" id="jx75f" d="M959.55 270.64h-10.98a.74.74 0 0 0 0 1.47h10.98a.74.74 0 0 0 0-1.47z"/><path fill="#434343" id="jx75g" d="M940.72 267.5h-9.41a.74.74 0 0 0 0 1.47h9.41a.74.74 0 0 0 0-1.47z"/></defs><g><g transform="translate(-929 -240)"><use fill="#434343" xlink:href="#jx75a"/></g><g transform="translate(-929 -240)"><use fill="#434343" xlink:href="#jx75b"/></g><g transform="translate(-929 -240)"><use fill="#434343" xlink:href="#jx75c"/></g><g transform="translate(-929 -240)"><use fill="#434343" xlink:href="#jx75d"/></g><g transform="translate(-929 -240)"><use fill="#434343" xlink:href="#jx75e"/></g><g transform="translate(-929 -240)"><use fill="#434343" xlink:href="#jx75f"/></g><g transform="translate(-929 -240)"><use fill="#434343" xlink:href="#jx75g"/></g></g></svg>