<svg xmlns="http://www.w3.org/2000/svg" xmlns:xlink="http://www.w3.org/1999/xlink" width="280" height="47" viewBox="0 0 280 47"><defs><path fill="#434343" id="voswb" d="M910.33 50.22c-3.3 2.72-7.85 3.8-12.66 3.9 1.91-13.5 9.06-19.11 14.52-16.37 4.3 2.15 2.26 9.08-1.86 12.47zm-20.5 21.37c-1.62 0-1.94-2.66-1.49-6.45.54-4.25 2.07-7.9 3.77-7.9 1.56 0 2.15 1.77 1.99 5-.11 1.02-.25 1.96-.3 2.85-.56 3.3-2.37 6.5-3.98 6.5zM911 50.68c4.03-3.3 6.66-10.97 1.85-13.36-6.34-3.2-15.46 2.47-17.72 16.77a62.07 62.07 0 0 1-14.1-2.47c-.33-.08-1.03.56-.52.72a65.67 65.67 0 0 0 14.46 2.67l-.37 3.09c-.27-.94-.92-1.54-2.02-1.54-3.14 0-6.13 3.31-6.83 8.96-.53 4.54.92 6.8 3.44 6.8 1.97 0 3.58-1.86 4.52-4.52.1 2.93 1 4.52 3.52 4.52 2.85 0 5.3-4.87 6.48-7.74.3-.73-.24-.94-.51-.27-1 2.47-3.52 7.28-5.35 7.28-1.93 0-1.88-4.06-1.16-9.89l.81-6.64c5.1-.1 9.78-1.32 13.5-4.38z"/><path fill="#434343" id="voswc" d="M908.07 57.3c1.08 0 1.91 1.3 1.64 3.43-.24 1.96-1.77 4.63-6 6.94-.04-.76 0-1.59.12-2.47.61-5.11 2.52-7.9 4.24-7.9zm7.7 7.06c.26-.72-.25-.94-.52-.27-2.18 5.35-6.61 7.5-8.87 7.5-1.5 0-2.4-1.23-2.6-3.25 5.15-2.77 8.3-5.8 8.65-8.68.3-2.26-1.5-3.04-3.87-3.04-2.85 0-6.53 2.74-7.31 8.95-.57 4.54 1.4 6.8 4.51 6.8 3.1 0 7.8-2.69 10-8z"/><path fill="#434343" id="voswd" d="M954.4 50.22c-3.3 2.72-7.85 3.8-12.66 3.9 1.91-13.5 9.06-19.11 14.52-16.37 4.33 2.15 2.26 9.11-1.86 12.47zm.68.46c4.03-3.3 6.66-10.97 1.85-13.36-6.34-3.2-15.46 2.47-17.71 16.77a64.46 64.46 0 0 1-14.12-2.44c-.32-.11-1.02.56-.5.7 4.78 1.37 9.78 2.44 14.48 2.66l-.89 7.06c-.8 6.56-.7 10.25 3.15 10.25 2.85 0 5.27-4.87 6.45-7.75.3-.72-.24-.93-.51-.26-1 2.47-3.52 7.28-5.35 7.28-1.94 0-1.88-4.06-1.16-9.89l.81-6.64c5.1-.08 9.79-1.32 13.5-4.38z"/><path fill="#434343" id="voswe" d="M952.39 57.3c1.07 0 1.9 1.3 1.63 3.43-.24 1.96-1.77 4.63-5.99 6.94-.05-.76 0-1.59.1-2.47.63-5.11 2.54-7.9 4.26-7.9zm7.68 7.06c.27-.72-.24-.94-.5-.27-2.19 5.35-6.62 7.5-8.88 7.5-1.5 0-2.39-1.23-2.6-3.25 5.16-2.77 8.3-5.8 8.65-8.68.3-2.26-1.5-3.04-3.87-3.04-2.85 0-6.53 2.74-7.31 8.95-.57 4.54 1.4 6.8 4.51 6.8 3.1 0 7.8-2.69 10-8z"/><path fill="#434343" id="voswf" d="M975.29 64.46c-1.18 2.88-3.15 7.75-6.32 7.75-2.31 0-3.12-1.64-3.06-4.82-1 2.45-2.8 4.82-4.95 4.82-3.04 0-3.47-2.77-2.82-8.1l.78-6.42c.05-.46 2.74-1.67 2.66-1.1l-.86 6.77c-.6 4.98-.62 8.12.73 8.12 1.85 0 4.22-4 4.67-6.99l.84-6.8c.05-.46 2.74-1.67 2.66-1.1-.06.45-.76 5.86-.86 6.77-.6 4.98-.62 8.12.72 8.12 1.97 0 4.12-4.38 5.3-7.26.3-.7.8-.48.51.24"/><path fill="#434343" id="voswg" d="M983.38 60.35c-.53 2.44-3.6 1.64-2.6-.14.83-1.53.88-2.36.13-2.71-1.67-.75-4.84 4.03-5.54 7.58l-.78 6.48c-.05.45-2.66.97-2.58.4l1.75-14.17c.05-.45 2.71-1.66 2.66-1.1l-.64 5.16c1.34-2.93 3.57-5.32 5.4-5.32 1.99 0 2.74 1.43 2.2 3.82"/><path fill="#434343" id="voswh" d="M936.96 59.51c-.3 0-3.28.3-6.07.57l1.31-10.75c.08-.6-2.63.9-2.68 1.37l-1.19 9.62-2.42.24c-.13 0-.32.46-.18.46.37 0 1.31.1 2.5.21l-.27 2.29c-.62 4.9-2 7.96-4.04 7.96-.45 0-1.04.8-.53.8 2.8 0 6.29-2.39 7.2-9.76l.14-1.02c2.44.27 4.8.57 4.8.57.47 0 2.02-2.56 1.43-2.56"/><path fill="#434343" id="voswi" d="M970.49 45.76c-.1-.89-.7.16-.65.46.7 4.83-11.6 5.61-23.9 1.93-.67-.2-1.34-.38-2-.55-.66.87-1.3 2.04-1.3 2.04s.06-.27.23-.85c.2-.71.32-1.12.4-1.35-11.25-2.68-20-.4-22.14 4.74-1.77 4.3 2.26 7.85 5.46 7.13 1-.24.86-.76.62-.7-3.39.8-6.9-2.31-5.1-6.53 1.82-4.33 9.83-5.03 21.98-1.43 13.74 4.06 27.18 1.1 26.4-4.9"/><path fill="#434343" id="voswj" d="M749.37 64.55c-1.18 2.87-3.14 7.74-6.29 7.74-2.18 0-3.04-1.45-3.09-4.25-.97 2.53-2.5 4.25-4.4 4.25-2.54 0-4.01-2.26-3.45-6.8.75-6.21 4.27-8.77 7.42-8.96 2.55-.13 4.17.68 4.06 1.64-.1.9-.94 1.4-1.7 1.64-.75.3-1.58.17-1.4-.59.3-1.07.09-2.01-1.55-2.01-1.72 0-3.6 2.8-4.25 7.9-.46 3.8-.16 6.45 1.48 6.45 1.53 0 3.28-2.98 3.92-6.18l.11-1.18.35-2.85c.08-.54 2.69-1.43 2.64-.97l-.38 3.04c-.62 4.97-.62 8.14.72 8.14 1.97 0 4.12-4.38 5.3-7.28.27-.67.8-.46.51.27"/><path fill="#434343" id="voswk" d="M771.41 50.22c-3.3 2.72-7.85 3.8-12.66 3.9 1.91-13.5 9.06-19.11 14.52-16.37 4.3 2.15 2.26 9.08-1.86 12.47zm-20.5 21.37c-1.62 0-1.94-2.66-1.49-6.45.54-4.25 2.07-7.9 3.77-7.9 1.56 0 2.15 1.77 1.99 5-.11 1.02-.24 1.96-.3 2.85-.56 3.3-2.36 6.5-3.98 6.5zm21.18-20.91c4.03-3.3 6.66-10.97 1.85-13.36-6.34-3.2-15.46 2.47-17.71 16.77a62.06 62.06 0 0 1-14.12-2.47c-.32-.08-1.02.56-.5.72a65.65 65.65 0 0 0 14.45 2.67l-.37 3.09c-.27-.94-.92-1.54-2.02-1.54-3.14 0-6.13 3.31-6.83 8.96-.53 4.54.92 6.8 3.44 6.8 1.97 0 3.58-1.86 4.52-4.52.1 2.93 1 4.52 3.52 4.52 2.85 0 5.3-4.87 6.48-7.74.3-.73-.24-.94-.5-.27-1 2.47-3.53 7.28-5.36 7.28-1.93 0-1.88-4.06-1.16-9.89l.81-6.64c5.1-.1 9.79-1.32 13.5-4.38z"/><path fill="#434343" id="voswl" d="M779.1 64.59c-.56 1.34-.8 3.08-1.73 4.6-1.06 1.72-2.4 3.1-4.08 3.1-2.18 0-3.04-1.45-3.09-4.25-.97 2.53-2.5 4.25-4.4 4.25-2.54 0-4.01-2.26-3.45-6.8.75-6.21 4.27-8.77 7.42-8.96 2.55-.13 4.17.68 4.06 1.64-.1.9-.94 1.4-1.7 1.64-.75.3-1.58.17-1.4-.59.3-1.07.09-2.01-1.55-2.01-1.72 0-3.6 2.8-4.25 7.9-.46 3.8-.16 6.45 1.48 6.45 1.53 0 3.28-2.98 3.92-6.18l.11-1.18.35-2.85c.08-.54 2.69-1.43 2.64-.97l-.38 3.04c-.62 4.97-.62 8.14.72 8.14 1.04 0 2.12-1.21 3.1-2.79.86-1.41 1.09-3 1.65-4.37.27-.67.87-.54.57.19"/><path fill="#434343" id="voswm" d="M799.72 67.18c-.8 1.88-1.6 5.4-4.1 5.4-2.24 0-3.39-1.66-2.63-8.82.5-4.77 1.08-6.5-.4-6.5-1.97 0-4.82 4.75-5.25 8.3 0 .11-.05.22-.08.3-.24 2.23-.59 5.05-.67 5.7-.05.45-2.66.97-2.58.4l.94-7.77c.6-4.76 1.1-6.93-.37-6.93-2 0-4.84 4.75-5.27 8.3l-.73 6c-.05.45-2.66.97-2.58.4l1.75-14.17c.05-.45 2.71-1.66 2.66-1.1l-.62 4.97c1.24-2.84 3.28-5.13 5.38-5.13 2.26 0 2.93 1.21 2.55 5.38 1.21-2.96 3.34-5.38 5.49-5.38 2.5 0 3.06 1.5 2.39 6.9a75.5 75.5 0 0 0-.36 3.5c-.21 2.7.06 4.4 1.09 4.37.74-.02 1.8-1.36 2.69-4.14.42-1.33 1.29-1.3.7.02"/><path fill="#434343" id="voswa" d="M704.03 47.84h109.12V74.5H704.03z"/><path fill="#434343" id="voswo" d="M805.38 57.3c1.08 0 1.91 1.3 1.64 3.43-.24 1.96-1.77 4.63-6 6.94-.04-.76 0-1.59.12-2.47.61-5.11 2.52-7.9 4.24-7.9zm7.7 7.06c.26-.72-.25-.94-.52-.27-2.18 5.35-6.61 7.5-8.87 7.5-1.5 0-2.4-1.23-2.6-3.25 5.15-2.77 8.3-5.8 8.65-8.68.3-2.26-1.5-3.04-3.87-3.04-2.85 0-6.53 2.74-7.31 8.95-.57 4.54 1.4 6.8 4.51 6.8 3.1 0 7.8-2.69 10-8z"/><path fill="#434343" id="voswp" d="M716 73l.02.13c-.02.24.02.48.05.7.03.18.11.18.24.1.22-.06.48-.34.66-.59 3.67-5.03 7.72-12.21 9.8-18.6-.45 6.18-1.07 15.37-1.13 16.15-.1 1.2-.23 2.33-.38 3.4h2.36c.21-1.3.42-2.74.5-3.9l1.92-22.4c.04-.57-2.75.69-2.9 1.18-.03 0-.03.03-.03.05-.47 5.13-4.3 13.14-8.91 20.08-.13-5.56.16-14.2.73-20.49l.04-.46c.06-.56-2.72.67-2.9 1.16l-.03.03-.02.22c-.65 6.23-5.87 16.52-11.68 24.08-.2.3-.46.55-.27.63.13.04.62.03 1.05.02.45-.01.74-.43 1-.84 3.67-4.97 7.55-12.07 9.55-18.4a172.1 172.1 0 0 0 .32 17.74"/><path fill="#434343" id="voswq" d="M850.4 65.95a26.93 26.93 0 0 0 .25-12.88c1.63 4.32 1.67 8.62-.25 12.88zm1.29-15.58c3.48 6.19 3.2 12.03-1.32 19.11 3.23-6.17 4.44-12.49 1.32-19.1zm6.1 7.66c-.08-.7-.07-1.41-.24-2.08-1.36-5.1-4.57-8.8-8.85-11.68-.25-.17-.84-.05-1.14.14a21.4 21.4 0 0 0-6.08 6.01c-2.87 4.1-3.92 8.46-1.16 12.98 1.77 2.9 3.9 5.61 5.92 8.36.6.81 3.55.62 4.17-.2 1.56-2.05 3.14-4.09 4.61-6.2 1.53-2.2 2.72-4.55 2.77-7.33z"/><path fill="#434343" id="voswr" d="M869.9 67.07c-2.63.46-5.28.85-7.97 1.13 1.69-.4 3.36-.9 5.07-1.2 2.48-.44 5.03-.56 7.13-2.25a6.49 6.49 0 0 1-4.23 2.32zm1.4-2.2c-5.32.92-10.85 1.14-15.5 4.46 4.42-3.98 9.9-4.43 15.5-4.46zm6.42-5.58a8.74 8.74 0 0 1-5.78 3.78c-1.26.21-2.56.27-3.84.33-3.28.18-6.54.4-9.54 1.96-3.1 1.6-5.56 3.9-7.68 6.72A25.7 25.7 0 0 0 861 75.63c10.65 1.18 16.76-7.3 16.72-16.34z"/><path fill="#434343" id="vosws" d="M834.4 72.03c-3.1.13-6.05-1.13-8.5-3.01l8.5 3zm-7.65.2c-2.35-1.29-4-3.24-5.12-5.7 4.64 7.14 11.6 7.35 18.97 6.45-4.7 1.04-9.37 1.67-13.85-.76zm-7.88-12.77l-.22.16c.1.91.16 1.83.3 2.73.61 3.64 2 6.93 4.71 9.52 3.4 3.24 7.51 4.28 12.11 3.72 3.53-.43 6.72-1.7 9.87-3.54a25.83 25.83 0 0 0-6.03-5.75c-3.45-2.3-7.37-2.83-11.38-2.88-3.66-.05-7.02-.73-9.36-3.96z"/><path fill="#434343" id="voswt" d="M864.71 76.73c-.58 3.1-4.03 5.72-7.8 5.74-4.5 0-7.61-2.91-8.64-8.12-1.57 5.57-4.16 8.03-8.55 8.13a8.12 8.12 0 0 1-8.02-5.83c1.54.04 3.21.43 4.7.04 2.56-.67 5.1-1.64 7.49-2.82a9.1 9.1 0 0 1 8.63-.05 41.4 41.4 0 0 0 7.37 2.83c1.52.41 3.24.08 4.82.08"/><path fill="#434343" id="voswu" d="M836.84 45.6a20.55 20.55 0 0 0-.94 13.6c-2.13-4.7-1.76-9.22.94-13.6zm4.37 20.76c-2.37-3-3.38-6.12-3.03-9.62.36-3.5 1.94-6.43 4.64-9.03l-4.4-6.35c-8.01 8.63-6.55 19.34 2.79 25z"/><path fill="#434343" id="voswv" d="M859.44 45.02c3.36 5.1 3.65 11.05.26 16.03 2.67-5.39 2.04-10.72-.26-16.03zm-5.71 2.64c5.58 6.45 5.98 10.94 1.84 18.51 9.5-5.68 10.17-16.87 2.45-24.79l-4.29 6.28z"/><path fill="#434343" id="vosww" d="M859.54 64.21a12.57 12.57 0 0 0 4.42-8.12c.13-.9.03-1.84.14-2.75.05-.48.18-1.07.5-1.36a19.48 19.48 0 0 1 7.62-4.3c.1-.04.2 0 .31.01 1.1 7.62-3.26 14.7-12.99 16.52"/><path fill="#434343" id="voswx" d="M830.83 60.43c-3.79-2.18-5.51-5.63-5.96-9.86a19.5 19.5 0 0 0 5.96 9.86zm6.15 3.84a12.81 12.81 0 0 1-4.54-10.55c.04-1-.25-1.77-1.06-2.23-2.18-1.27-4.4-2.47-6.62-3.67-.23-.13-.55-.13-.83-.19-.96 8.18 3.46 14.58 13.05 16.64z"/><path fill="#434343" id="voswy" d="M866.08 76.32c.34-.11.65-.23.96-.31 3.28-.9 5.92-2.7 7.85-5.5.41-.6.84-.85 1.55-.58 1.57.57 3.14 1.11 4.7 1.66-1.58 4.74-10.23 7.33-15.06 4.73"/><path fill="#434343" id="voswz" d="M815.34 71.94a11.46 11.46 0 0 1 5.2-2.1c.25-.04.66.16.81.37a14.3 14.3 0 0 0 9.1 6.06c-4.91 1.95-11.64 1.41-15.11-4.33"/><path fill="#434343" id="voswA" d="M830.59 62.86c-2.27-.33-4.56-.57-6.8-1a3.13 3.13 0 0 1-2.55-2.64c-.3-1.78-.32-3.61-.3-5.46 3.45 2.82 5.71 6.76 9.81 8.72l-.16.38"/><path fill="#434343" id="voswB" d="M875.52 53.6c0 1.72.14 3.2-.04 4.66-.28 2.34-1.3 3.33-3.61 3.83-.86.2-1.74.3-2.61.39-1.12.11-2.24.16-3.42.12 4.02-2.09 6.28-6.05 9.68-9"/><clipPath id="voswn"><use xlink:href="#voswa"/></clipPath></defs><g><g transform="translate(-704 -36)"><use fill="#434343" xlink:href="#voswb"/></g><g transform="translate(-704 -36)"><use fill="#434343" xlink:href="#voswc"/></g><g transform="translate(-704 -36)"><use fill="#434343" xlink:href="#voswd"/></g><g transform="translate(-704 -36)"><use fill="#434343" xlink:href="#voswe"/></g><g transform="translate(-704 -36)"><use fill="#434343" xlink:href="#voswf"/></g><g transform="translate(-704 -36)"><use fill="#434343" xlink:href="#voswg"/></g><g transform="translate(-704 -36)"><use fill="#434343" xlink:href="#voswh"/></g><g transform="translate(-704 -36)"><use fill="#434343" xlink:href="#voswi"/></g><g transform="translate(-704 -36)"><use fill="#434343" xlink:href="#voswj"/></g><g transform="translate(-704 -36)"><use fill="#434343" xlink:href="#voswk"/></g><g transform="translate(-704 -36)"><use fill="#434343" xlink:href="#voswl"/></g><g transform="translate(-704 -36)"><use fill="#434343" xlink:href="#voswm"/></g><g transform="translate(-704 -36)"/><g clip-path="url(#voswn)" transform="translate(-704 -36)"><use fill="#434343" xlink:href="#voswo"/></g><g clip-path="url(#voswn)" transform="translate(-704 -36)"><use fill="#434343" xlink:href="#voswp"/></g><g transform="translate(-704 -36)"><use fill="#434343" xlink:href="#voswq"/></g><g transform="translate(-704 -36)"><use fill="#434343" xlink:href="#voswr"/></g><g transform="translate(-704 -36)"><use fill="#434343" xlink:href="#vosws"/></g><g transform="translate(-704 -36)"><use fill="#434343" xlink:href="#voswt"/></g><g transform="translate(-704 -36)"><use fill="#434343" xlink:href="#voswu"/></g><g transform="translate(-704 -36)"><use fill="#434343" xlink:href="#voswv"/></g><g transform="translate(-704 -36)"><use fill="#434343" xlink:href="#vosww"/></g><g transform="translate(-704 -36)"><use fill="#434343" xlink:href="#voswx"/></g><g transform="translate(-704 -36)"><use fill="#434343" xlink:href="#voswy"/></g><g transform="translate(-704 -36)"><use fill="#434343" xlink:href="#voswz"/></g><g transform="translate(-704 -36)"><use fill="#434343" xlink:href="#voswA"/></g><g transform="translate(-704 -36)"><use fill="#434343" xlink:href="#voswB"/></g></g></svg>