<?xml version="1.0" encoding="UTF-8"?>
<svg width="49px" height="67px" viewBox="0 0 49 67" version="1.1" xmlns="http://www.w3.org/2000/svg" xmlns:xlink="http://www.w3.org/1999/xlink">
    <!-- Generator: Sketch 48.2 (47327) - http://www.bohemiancoding.com/sketch -->
    <title>maps-and-flags (1)</title>
    <desc>Created with Sketch.</desc>
    <defs></defs>
    <g id="Контакты" stroke="none" stroke-width="1" fill="none" fill-rule="evenodd" transform="translate(-1232.000000, -634.000000)">
        <g id="maps-and-flags-(1)" transform="translate(1232.000000, 634.000000)">
            <path d="M24.3636364,0 C10.9294547,0 0,10.8851578 0,24.26476 C0,40.8692646 21.8030678,65.2456479 22.7313527,66.2752507 C23.6032705,67.2424335 25.1255789,67.2407323 25.99592,66.2752507 C26.9242049,65.2456479 48.7272727,40.8692646 48.7272727,24.26476 C48.7270099,10.8851578 37.7976866,0 24.3636364,0 Z" id="Shape" fill="#6E58AC" fill-rule="nonzero"></path>
            <path d="M25.946169,18.7353732 C26.4571751,21.2095635 26.4836756,23.6644807 25.8021557,26.1084229 C26.9004575,23.6684959 26.8793105,21.2055483 25.946169,18.7353732 Z" id="Path" fill="#FFFFFF"></path>
            <path d="M25.7826149,28.1326387 C28.3705703,24.0764442 28.5357305,20.7314824 26.5396213,17.1887031 C28.3296149,20.9796242 27.63712,24.5965515 25.7826149,28.1326387 Z" id="Path" fill="#FFFFFF"></path>
            <path d="M30.0312732,21.5741472 C30.0042373,23.1668587 29.3240558,24.5167821 28.4500721,25.7730166 C27.6079426,26.9821389 26.7004986,28.1462905 25.8101862,29.3211495 C25.4541683,29.7903971 23.7658942,29.9036268 23.4200482,29.436253 C22.2583057,27.8630823 21.0446328,26.3145385 20.029045,24.6490173 C18.4513237,22.0599912 19.049862,19.5697399 20.6939686,17.2176128 C21.6442418,15.8572498 22.7631551,14.6636531 24.1738424,13.7741438 C24.3467654,13.6646616 24.6861869,13.6004178 24.827791,13.6957128 C27.2781576,15.3432992 29.1198139,17.467093 29.8942197,20.3845657 C29.9956714,20.7662811 29.9881763,21.1766386 30.0312732,21.5741472 Z" id="Path" fill="#FFFFFF"></path>
            <path d="M39.3894571,25.4244938 C38.1915774,26.3916311 36.7281566,26.4601578 35.3099742,26.7123148 C34.3318619,26.8857732 33.3730228,27.1657692 32.4053502,27.3975823 C33.9450606,27.236705 35.4612148,27.0169376 36.969874,26.7519319 C37.9094399,26.5867717 38.7673627,26.2240618 39.3894571,25.4244938 Z" id="Path" fill="#FFFFFF"></path>
            <path d="M28.8952282,28.042162 C31.5584025,26.143757 34.7226785,26.0179461 37.7681035,25.4924852 C34.5631397,25.5080108 31.4275057,25.7652538 28.8952282,28.042162 Z" id="Path" fill="#FFFFFF"></path>
            <path d="M41.4471062,22.2955518 C41.4708092,27.476281 37.9727057,32.3304373 31.8711009,31.652665 C29.8008275,31.4219226 27.9219486,30.6839216 26.0778688,29.6172065 C27.2899451,28.0030803 28.6979666,26.6852789 30.4748575,25.7687336 C32.1955347,24.8813658 34.0602263,24.7528782 35.937499,24.6514265 C36.6733642,24.6120771 37.4153861,24.5820967 38.1392055,24.4584273 C39.4856595,24.2287556 40.5606812,23.5193967 41.4471062,22.2955518 Z" id="Path" fill="#FFFFFF"></path>
            <path d="M11.7662183,27.8662945 C13.1747642,28.9450554 14.8633061,29.6675308 16.6441985,29.5901705 C15.0769168,29.0363352 13.351167,28.4262865 11.7662183,27.8662945 Z" id="Path" fill="#FFFFFF"></path>
            <path d="M20.1872454,30.1359753 C15.9739212,30.6493906 11.9846473,30.5297365 9.32682676,26.4371371 C9.96846197,27.8499659 10.9107047,28.9686115 12.2600927,29.7015265 C14.8244921,31.0940114 17.4962322,30.7304984 20.1872454,30.1359753 Z" id="Path" fill="#FFFFFF"></path>
            <path d="M7.74830244,22.3937914 C9.0877862,24.2408013 11.0092119,24.6329564 13.1073082,24.66026 C15.4040249,24.6905081 17.6445283,24.9951309 19.6251119,26.3126647 C20.95255,27.196285 22.0551346,28.3050263 23.0728639,29.6059638 C21.2745722,30.6547442 19.4428201,31.3865885 17.4260993,31.6312504 C14.7918348,31.9519341 12.4375663,31.3536635 10.4885693,29.4975523 C8.93493943,28.0175352 8.14233124,26.1346558 7.79702068,24.0483375 C7.71162992,23.5317101 7.67736655,23.0062492 7.61981479,22.4850711 C7.66210864,22.4545553 7.70547322,22.4240395 7.74830244,22.3937914 Z" id="Path" fill="#FFFFFF"></path>
            <path d="M33.9980617,32.2766331 C33.6623877,34.0513688 31.6917084,35.555745 29.5339189,35.5629725 C26.9529232,35.571003 25.1717632,33.898522 24.5836645,30.9141287 C23.6855894,34.105173 22.2026277,35.5142542 19.6869466,35.5688615 C17.5390614,35.6157059 15.7501386,34.289071 15.0940485,32.234607 C15.9736535,32.2562893 16.9349018,32.4771274 17.7802434,32.2560216 C19.2530331,31.8702909 20.7057466,31.316991 22.0719986,30.6421631 C23.7602728,29.8080642 25.3230039,29.7874526 27.015561,30.6148595 C28.3673581,31.2749648 29.7879497,31.8445934 31.2369157,32.2335362 C32.1063488,32.4674908 33.0900823,32.2766331 33.9980617,32.2766331" id="Path" fill="#FFFFFF"></path>
            <path d="M17.5018535,22.2404092 C16.7635849,19.5852655 17.0028931,16.9924918 18.0382895,14.4511131 C16.4926901,16.9601022 16.2812208,19.5542143 17.5018535,22.2404092 Z" id="Path" fill="#FFFFFF"></path>
            <path d="M20.5379096,26.3445189 C15.1920203,23.1012765 14.353103,16.9694711 18.9438597,12.025641 C19.7913428,13.2494859 20.6184821,14.4428149 21.4614146,15.6591647 C19.9150122,17.1512275 19.0121188,18.8234408 18.8076093,20.8302573 C18.6033674,22.8378768 19.1807588,24.6209106 20.5379096,26.3445189 Z" id="Path" fill="#FFFFFF"></path>
            <path d="M31.1274335,23.3025738 C33.0705415,20.450951 32.9053813,17.0449576 30.9769958,14.1237373 C32.2974741,17.1635409 32.6559011,20.2177995 31.1274335,23.3025738 Z" id="Path" fill="#FFFFFF"></path>
            <path d="M27.709662,15.6313257 C28.504947,14.4674417 29.3275356,13.2644761 30.1656499,12.0376867 C34.5866958,16.5735685 34.1998944,22.9789455 28.7635284,26.2334306 C31.1322518,21.8961694 30.9039185,19.3269518 27.709662,15.6313257 Z" id="Path" fill="#FFFFFF"></path>
            <path d="M31.0377598,25.1174619 C32.5167062,23.8644396 33.3077083,22.2982287 33.5695019,20.4651382 C33.64365,19.9461016 33.5874366,19.4104687 33.6463268,18.8884877 C33.6768426,18.6170575 33.7523291,18.2789744 33.9356917,18.1084605 C35.188714,16.9416321 36.6668573,16.1511653 38.2983828,15.6433714 C38.3524547,15.6262397 38.4188399,15.6500635 38.4774624,15.6546141 C39.1075873,20.0183759 36.6087702,24.0700198 31.0377598,25.1174619" id="Path" fill="#FFFFFF"></path>
            <path d="M11.1797258,17.3054127 C11.4369687,19.7244604 12.4228438,21.6986196 14.5961588,22.9492328 C12.8634493,21.4304017 11.7779964,19.516471 11.1797258,17.3054127 Z" id="Path" fill="#FFFFFF"></path>
            <path d="M18.1127052,25.1474423 C12.6260149,23.9715126 10.0902576,20.3013164 10.6416837,15.6198154 C10.8049701,15.6538111 10.9832467,15.6514019 11.1197649,15.7258177 C12.3891158,16.4161711 13.6616789,17.1025093 14.9109536,17.8279292 C15.3737768,18.0961471 15.5410784,18.5311314 15.51779,19.1095935 C15.422495,21.4702864 16.2480282,23.4725523 18.1127052,25.1474423 Z" id="Path" fill="#FFFFFF"></path>
            <path d="M34.7778212,32.0496383 C34.9737648,31.9848591 35.1472231,31.9184738 35.3260351,31.8700233 C37.2040963,31.3592848 38.7159676,30.3206763 39.8233706,28.7175252 C40.0602697,28.3746238 40.3025224,28.2364996 40.7126122,28.3877403 C41.6074751,28.7188636 42.5109039,29.0261633 43.4071053,29.3417611 C42.4985905,32.0563304 37.5445886,33.5371505 34.7778212,32.0496383" id="Path" fill="#FFFFFF"></path>
            <path d="M5.72649573,29.5358309 C6.63126293,28.854311 7.6366788,28.5130157 8.70232325,28.3384867 C8.8460688,28.3146629 9.08457401,28.4254835 9.16862634,28.5491529 C10.4270023,30.3932183 12.1615855,31.5239096 14.3804067,32.0159103 C11.5662594,33.1350912 7.71484212,32.8259178 5.72649573,29.5358309" id="Path" fill="#FFFFFF"></path>
            <path d="M14.4556255,24.3409146 C13.1557587,24.1546075 11.8478615,24.0122004 10.5597728,23.764594 C9.77332135,23.6138887 9.23126407,23.0231132 9.1030441,22.254061 C8.93279797,21.2349934 8.92289371,20.1880867 8.93547479,19.1299374 C10.909634,20.7429927 12.2041471,23.0000925 14.5514558,24.1206118 C14.5190663,24.1939569 14.4874797,24.2675696 14.4556255,24.3409146" id="Path" fill="#FFFFFF"></path>
            <path d="M40.1809945,19.0365161 C40.1809945,20.0218558 40.2637085,20.8741572 40.1625244,21.7039733 C39.997632,23.0461339 39.4186345,23.6101411 38.0933379,23.9003091 C37.601605,24.0081852 37.098094,24.0718936 36.5967245,24.1216826 C35.9588368,24.1856587 35.3172016,24.2148361 34.6402323,24.1880679 C36.9404289,22.9950065 38.2378865,20.7247903 40.1809945,19.0365161" id="Path" fill="#FFFFFF"></path>
        </g>
    </g>
</svg>