<?xml version="1.0" encoding="UTF-8"?>
<svg class="b-svg-cont" width="67px" height="42px" viewBox="0 0 67 42" version="1.1" xmlns="http://www.w3.org/2000/svg" xmlns:xlink="http://www.w3.org/1999/xlink">
    <!-- Generator: Sketch 48.2 (47327) - http://www.bohemiancoding.com/sketch -->
    <title>Group 4</title>
    <desc>Created with Sketch.</desc>
    <defs></defs>
    <style>@-webkit-keyframes fade {
    0% {
        opacity: 0;
    }
    15% {
        opacity: 1;
    }
    50% {
        opacity: 1;
    }
    63% {
        opacity: 0;
    }
}
@keyframes fade {
    0% {
        opacity: 0;
    }
    15% {
        opacity: 1;
    }
    50% {
        opacity: 1;
    }
    63% {
        opacity: 0;
    }
}
.b-svg{
    opacity: 0;
    -webkit-animation: fade 1800ms linear infinite;
       -moz-animation: fade 1800ms linear infinite;
        -ms-animation: fade 1800ms linear infinite;
         -o-animation: fade 1800ms linear infinite;
            animation: fade 1800ms linear infinite;
}
.b-svg-3{
    -webkit-animation-delay: 0s;
       -moz-animation-delay: 0s;
        -ms-animation-delay: 0s;
         -o-animation-delay: 0s;
            animation-delay: 0s;
}
.b-svg-4{
    -webkit-animation-delay: 200ms;
       -moz-animation-delay: 200ms;
        -ms-animation-delay: 200ms;
         -o-animation-delay: 200ms;
            animation-delay: 200ms;
}
.b-svg-5{
    -webkit-animation-delay: 300ms;
       -moz-animation-delay: 300ms;
        -ms-animation-delay: 300ms;
         -o-animation-delay: 300ms;
            animation-delay: 300ms;
}
.b-svg-6{
    -webkit-animation-delay: 400ms;
       -moz-animation-delay: 400ms;
        -ms-animation-delay: 400ms;
         -o-animation-delay: 400ms;
            animation-delay: 400ms;
}
.b-svg-2{
    -webkit-animation-delay: 500ms;
       -moz-animation-delay: 500ms;
        -ms-animation-delay: 500ms;
         -o-animation-delay: 500ms;
            animation-delay: 500ms;
}
.b-svg-1{
    -webkit-animation-delay: 600ms;
       -moz-animation-delay: 600ms;
        -ms-animation-delay: 600ms;
         -o-animation-delay: 600ms;
            animation-delay: 600ms;
}
.b-svg-0{
    -webkit-animation-delay: 700ms;
       -moz-animation-delay: 700ms;
        -ms-animation-delay: 700ms;
         -o-animation-delay: 700ms;
            animation-delay: 700ms;
}</style>
    <g id="Спасиба-после-оформления-заказа" stroke="none" stroke-width="1" fill="none" fill-rule="evenodd" transform="translate(-495.000000, -908.000000)">
        <g id="Футер" transform="translate(0.000000, 859.000000)" fill="#6E58AC">
            <g id="Логотип" transform="translate(384.000000, 44.000000)">
                <g id="Group-4" transform="translate(111.000000, 5.000000)">
                    <path id="Fill-122" class="b-svg b-svg-3" d="M35.6531553,12.0748581 C36.5455092,16.3954591 36.5917863,20.682404 35.4016694,24.9501836 C37.3195993,20.6894157 37.2826711,16.3884474 35.6531553,12.0748581 Z M35.3675459,28.4850083 C39.8868114,21.401803 40.1752254,15.560601 36.6894825,9.37395659 C39.8152922,15.9939232 38.60601,22.3100501 35.3675459,28.4850083 Z M42.7868447,17.0321202 C42.7396327,19.8134224 41.5518531,22.1707513 40.0256427,24.3644741 C38.5550584,26.4759265 36.9704174,28.5088481 35.4156928,30.5604674 C34.79399,31.3798998 31.8458097,31.5776294 31.2418698,30.7614691 C29.2131553,28.0142905 27.0937563,25.3101169 25.3202671,22.4016694 C22.5651419,17.8805342 23.6103506,13.5318865 26.4814023,9.42444073 C28.1408347,7.04888147 30.0947579,4.9645409 32.558197,3.4112187 C32.8601669,3.22003339 33.4528881,3.10784641 33.7001669,3.2742571 C37.9791653,6.15138564 41.195192,9.86010017 42.5475125,14.9547913 C42.7246745,15.6213689 42.711586,16.3379633 42.7868447,17.0321202 Z"></path>
                    <path id="Fill-123" class="b-sv-8 b-sv b-svg b-svg-2" d="M59.1287479,23.7558598 C57.0369282,25.4447412 54.4814023,25.5644073 52.0048748,26.0047412 C50.296828,26.3076461 48.6224374,26.7965943 46.932621,27.2014023 C49.6213689,26.9204674 52.2689816,26.5366945 54.9035058,26.0739232 C56.5442404,25.7855092 58.042404,25.1521202 59.1287479,23.7558598 Z M40.803005,28.3270117 C45.4536227,25.0118865 50.9792988,24.792187 56.297429,23.874591 C50.7007012,23.9017028 45.2250417,24.3509182 40.803005,28.3270117 Z M62.721747,18.2918865 C62.7631386,27.3388314 56.6545576,35.8154925 45.9995993,34.6319199 C42.384374,34.2289816 39.1033723,32.9402337 35.8831386,31.0774624 C37.9997329,28.2587646 40.4584975,25.9575292 43.5614023,24.356995 C46.5661436,22.8074124 49.8223706,22.5830384 53.1005676,22.4058765 C54.385576,22.3371619 55.6813356,22.284808 56.9453088,22.0688481 C59.2965609,21.6677796 61.173823,20.4290484 62.721747,18.2918865 Z"></path>
                    <path id="Fill-124" class="b-sv-1 b-sv b-svg b-svg-2" d="M10.8911519,28.0198998 C13.3508514,29.9037062 16.2994992,31.1653422 19.4094157,31.0302504 C16.6725209,30.0631052 13.6588982,28.9977963 10.8911519,28.0198998 Z M25.5965275,31.9833723 C18.2389316,32.8799332 11.2725876,32.670985 6.63131886,25.524207 C7.75178631,27.9913856 9.39719533,29.9448414 11.7535893,31.2247078 C16.2317195,33.6563606 20.8972955,33.0215693 25.5965275,31.9833723 Z M3.87479132,18.4634391 C6.21388982,21.6888147 9.56921536,22.3736227 13.2330551,22.4213022 C17.2437396,22.4741235 21.1562604,23.0060768 24.6148915,25.3068447 C26.9329549,26.8498831 28.8583639,28.7860434 30.6355927,31.0578297 C27.4952922,32.8892821 24.2965609,34.1672788 20.7748247,34.5945242 C16.1746912,35.1545242 12.0635058,34.109783 8.66003339,30.8685142 C5.9469783,28.2840067 4.56287145,24.9959933 3.95986644,21.3527212 C3.81075125,20.4505509 3.7509182,19.5329549 3.65041736,18.6228381 C3.72427379,18.5695492 3.8,18.5162604 3.87479132,18.4634391 Z"></path>
                    <path id="Fill-1251" class="b-sv-10 b-sv b-svg b-svg-0" d="M33.2081803,31.7758789 C31.8761597,37.2993774 29.1159265,41.3752922 24.7228715,41.4706511 C20.9720868,41.5524541 17.8481469,39.235793 16.7024374,35.6481469 C18.2384641,35.68601 19.9170618,36.0716528 21.3932554,35.6855426 C23.9651419,35.0119533 26.5019699,34.0457429 28.887813,32.8673122 C31.8359933,31.4107513 33.2081803,31.7758789 33.2081803,31.7758789 Z"></path>
                    <path id="Fill-125" class="b-sv-9 b-sv b-svg b-svg-0" d="M41.9183306,41.4603673 C37.4112187,41.4743907 34.0271606,37.0977783 33.2081803,31.7758789 C33.2081803,31.7758789 34.5649416,31.3747579 37.520601,32.8196327 C39.881202,33.9723539 42.3619366,34.9670785 44.8922204,35.6462771 C46.4104841,36.0548247 48.1283472,35.7215359 49.7139232,35.7215359 C49.1277462,38.8207012 45.6864107,41.4477462 41.9183306,41.4603673 Z"></path>
                    <path id="Fill-126" class="b-sv-4 b-sv b-svg b-svg-4" d="M20.9071119,18.1955927 C19.6178965,13.5589983 20.035793,9.03131886 21.8438731,4.59338898 C19.1448414,8.97475793 18.7755593,13.5047746 20.9071119,18.1955927 Z M26.2088815,25.3624708 C16.8735225,19.6988982 15.4085476,8.99111853 23.4252421,0.357863105 C24.9051753,2.49502504 26.3495826,4.57889816 27.8215693,6.70297162 C25.1211352,9.30851419 23.5444407,12.2286477 23.1873122,15.7330885 C22.8306511,19.2389316 23.8389316,22.3525876 26.2088815,25.3624708 Z"></path>
                    <path id="Fill-127" class="b-sv-5 b-sv b-svg b-svg-4" d="M44.7010351,20.0504174 C48.0942237,15.0707179 47.8058097,9.12293823 44.4383306,4.02170284 C46.7442404,9.33001669 47.3701503,14.6635726 44.7010351,20.0504174 Z M38.7326878,6.65435726 C40.1214691,4.62190317 41.5579299,2.521202 43.0215025,0.378898164 C50.7418364,8.29976628 50.0663773,19.4852755 40.5730217,25.1684808 C44.7094491,17.5944574 44.3107179,13.1079132 38.7326878,6.65435726 Z"></path>
                    <path id="Fill-128" class="b-sv-6 b-sv b-svg b-svg-5" d="M44.5444407,23.2196995 C47.1270785,21.031586 48.5083806,18.2965609 48.9655426,15.0954925 C49.095025,14.1891152 48.9968614,13.2537563 49.0996995,12.3422371 C49.1529883,11.8682471 49.284808,11.2778631 49.6050083,10.9801002 C51.7931219,8.94250417 54.3743573,7.56213689 57.2234391,6.67539232 C57.3178631,6.64547579 57.4337896,6.68707846 57.5361603,6.69502504 C58.6365275,14.3153255 54.2729215,21.3905843 44.5444407,23.2196995"></path>
                    <path id="Fill-129" class="b-sv-3 b-sv b-svg b-svg-5" d="M9.8669783,9.57776294 C10.3161937,13.8020701 12.0377963,17.2494825 15.8329883,19.433389 C12.807212,16.7811018 10.9117195,13.4388648 9.8669783,9.57776294 Z M21.973823,23.2720534 C12.3925876,21.2185643 7.96447412,14.8094157 8.92741235,6.6342571 C9.21255426,6.6936227 9.52387312,6.68941569 9.76227045,6.81936561 C11.9788982,8.02490818 14.2011352,9.22343907 16.3827045,10.490217 C17.1909182,10.9585977 17.4830718,11.718197 17.442404,12.7283472 C17.2759933,16.8507513 18.717596,20.3472454 21.973823,23.2720534 Z"></path>
                    <path id="Fill-130" class="b-svg b-svg-1" d="M51.0755927,35.3251419 C51.4177629,35.21202 51.7206678,35.0960935 52.0329215,35.0114858 C55.3125209,34.1195993 57.9526544,32.3059098 59.8864775,29.5063773 C60.3001669,28.9075793 60.7232053,28.6663773 61.4393322,28.9304841 C63.0020033,29.5087145 64.5796327,30.0453422 66.1446411,30.5964608 C64.5581302,35.336828 55.9071119,37.9227379 51.0755927,35.3251419"></path>
                    <path id="Fill-131" class="b-svg b-svg-1" d="M0.344173623,30.9353589 C1.92414023,29.7452421 3.67986644,29.1492487 5.54076795,28.8444741 C5.79178631,28.8028715 6.20828047,28.996394 6.35505843,29.2123539 C8.55252087,32.4325876 11.5815693,34.4070785 15.456227,35.2662437 C10.5419699,37.2206344 3.8163606,36.6807346 0.344173623,30.9353589"></path>
                    <path id="Fill-132" class="b-sv-2 b-sv b-svg b-svg-6" d="M15.5875793,21.8636394 C13.3176628,21.5382972 11.0337229,21.289616 8.78437396,20.8572287 C7.41101836,20.5940568 6.46444073,19.562404 6.24053422,18.2194324 C5.94323873,16.4398664 5.92594324,14.6116861 5.94791319,12.7638731 C9.39532554,15.5807012 11.6558932,19.5222037 15.7549249,21.4789316 C15.6983639,21.6070117 15.6432053,21.7355593 15.5875793,21.8636394"></path>
                    <path id="Fill-133" class="b-sv-7 b-sv b-svg b-svg-6" d="M60.510985,12.6007346 C60.510985,14.3214023 60.6554257,15.8097496 60.4787312,17.2588314 C60.1907846,19.6026043 59.1796995,20.5875125 56.8653756,21.0942237 C56.0066778,21.2826043 55.1274124,21.3938564 54.2518865,21.4808013 C53.1379633,21.5925209 52.0174958,21.6434725 50.8353255,21.5967279 C54.8520868,19.5133222 57.1177963,15.5489149 60.510985,12.6007346"></path>
                </g>
            </g>
        </g>
    </g>
</svg>