<svg xmlns="http://www.w3.org/2000/svg" xmlns:xlink="http://www.w3.org/1999/xlink" width="24" height="19" viewBox="0 0 24 19"><defs><path id="9u2ea" d="M1199.41 285.43c-.2.15-.73.27-1.04-.07l-.56-.71c-.27-.46.06-.9.27-1.07 1.02-.84 1.76-1.5 2.22-1.96.9-.95 1.58-1.9 2.02-2.86.1-.21-.16-.35-.29-.4-3.34-1.1-5.01-3.02-5.01-5.78a5.2 5.2 0 0 1 1.62-3.97 5.7 5.7 0 0 1 4.07-1.53c1.45 0 2.73.66 3.85 1.98a6.02 6.02 0 0 1 1.64 4.05c0 4.25-2.93 8.36-8.79 12.32zm12.71 0c-.2.15-.73.27-1.04-.07l-.56-.71c-.27-.46.06-.9.27-1.07 1.02-.84 1.76-1.5 2.22-1.96.9-.95 1.58-1.9 2.02-2.86.1-.21-.16-.35-.3-.4-3.33-1.1-5-3.02-5-5.78a5.2 5.2 0 0 1 1.62-3.97 5.7 5.7 0 0 1 4.07-1.53c1.45 0 2.73.66 3.85 1.98a6.02 6.02 0 0 1 1.64 4.05c0 4.25-2.93 8.36-8.79 12.32z"/></defs><g><g transform="translate(-1197 -267)"><use fill="#6e58ac" xlink:href="#9u2ea"/></g></g></svg>