<?xml version="1.0" encoding="UTF-8"?>
<svg width="24px" height="20px" viewBox="0 0 24 20" version="1.1" xmlns="http://www.w3.org/2000/svg" xmlns:xlink="http://www.w3.org/1999/xlink">
    <!-- Generator: Sketch 48.2 (47327) - http://www.bohemiancoding.com/sketch -->
    <title>quotation-mark</title>
    <desc>Created with Sketch.</desc>
    <defs></defs>
    <g id="Попапы" stroke="none" stroke-width="1" fill="none" fill-rule="evenodd" transform="translate(-694.000000, -226.000000)">
        <g id="Попап-«Вопрос-ответ»" transform="translate(650.000000, 180.000000)" fill="#6E58AC" fill-rule="nonzero">
            <g id="Заголовок" transform="translate(44.000000, 34.000000)">
                <g id="quotation-mark" transform="translate(0.000000, 12.626866)">
                    <path d="M2.40847761,18.4359403 C2.2,18.5770746 1.67665672,18.7012537 1.37050746,18.3613134 L0.80561194,17.6508657 C0.53241791,17.1888955 0.863283582,16.7604776 1.07749254,16.582806 C2.0958806,15.7380299 2.83641791,15.0845373 3.29850746,14.6223284 C4.20465672,13.6693731 4.87450746,12.7154627 5.31677612,11.7644179 C5.41791045,11.5469851 5.15976119,11.4089552 5.02567164,11.3650149 C1.68632836,10.2705672 0.016119403,8.34113433 0.016119403,5.57707463 C0.016119403,3.94853731 0.557014925,2.62519403 1.63820896,1.6078806 C2.7198806,0.589970149 4.07486567,0.0813134328 5.70280597,0.0813134328 C7.15307463,0.0813134328 8.43820896,0.742686567 9.55749254,2.06591045 C10.6518209,3.31223881 11.1985672,4.66113433 11.1985672,6.11140299 C11.1986866,10.361791 8.26877612,14.4698507 2.40847761,18.4359403 Z M15.1176119,18.4359403 C14.9091343,18.5770746 14.385791,18.7012537 14.0796418,18.3613134 L13.5147463,17.6508657 C13.2415522,17.1888955 13.5724179,16.7604776 13.7866269,16.582806 C14.8048955,15.7380299 15.5455522,15.0845373 16.0076418,14.6223284 C16.913791,13.6693731 17.5836418,12.7154627 18.0260299,11.7644179 C18.1271642,11.5469851 17.8690149,11.4089552 17.7349254,11.3650149 C14.3955821,10.2705672 12.7253731,8.34113433 12.7253731,5.57707463 C12.7253731,3.94853731 13.2662687,2.62519403 14.3474627,1.6078806 C15.4292537,0.589970149 16.7841194,0.0813134328 18.4120597,0.0813134328 C19.8623284,0.0813134328 21.1474627,0.742686567 22.2667463,2.06591045 C23.3609552,3.31223881 23.9078209,4.66113433 23.9078209,6.11140299 C23.9078209,10.361791 20.9779104,14.4698507 15.1176119,18.4359403 Z" id="Shape" transform="translate(11.961970, 9.330407) rotate(180.000000) translate(-11.961970, -9.330407) "></path>
                </g>
            </g>
        </g>
    </g>
</svg>