<?xml version="1.0" encoding="UTF-8"?>
<svg width="160px" height="28px" viewBox="0 0 160 28" version="1.1" xmlns="http://www.w3.org/2000/svg" xmlns:xlink="http://www.w3.org/1999/xlink">
    <!-- Generator: Sketch 48.2 (47327) - http://www.bohemiancoding.com/sketch -->
    <title>REDDER</title>
    <desc>Created with Sketch.</desc>
    <defs></defs>
    <g id="Табличка-65х25-Copy" stroke="none" stroke-width="1" fill="none" fill-rule="evenodd" transform="translate(-8.000000, -48.000000)">
        <g id="Логотип" transform="translate(8.000000, 48.000000)" fill="#434343">
            <g id="REDDER">
                <path d="M0,0.0544632121 C8.45408847,0.0544632121 12.6895386,0.0544632121 12.7063505,0.0544632121 C18.1499408,0.415682363 20.9704986,4.00129955 21.7246939,7.84813913 C22.5008573,11.8070281 20.7083519,15.9420448 17.8315525,17.775898 C17.8618718,17.8229533 19.9824574,21.0602895 24.1933095,27.4879068 L15.364471,27.4879068 L10.6459965,19.403419 L7.01886488,19.403419 L7.01886488,27.4879068 L0,27.4879068 L0,0.0544632121 Z M7.00654546,6.33143121 L7.00654546,13.1845902 C10.5490612,13.1845902 12.344882,13.1845902 12.3940079,13.1845902 C14.2047154,12.863871 14.9193025,11.1468308 14.9193025,9.6644358 C14.9193025,8.33509076 14.3282884,6.6877247 12.3940079,6.33143121 C12.3794315,6.33143121 10.5836106,6.33143121 7.00654546,6.33143121 Z" id="Combined-Shape"></path>
                <polygon id="Rectangle-3" points="28.0711928 0.0546261523 45.5518132 0.0546261523 45.5518132 6.34773428 35.0090092 6.34773428 35.0090092 10.2289944 44.3562568 10.2289944 44.3562568 16.3985138 35.0090092 16.3985138 35.0090092 21.2605737 45.5518132 21.2605737 45.5518132 27.4880435 28.0711928 27.4880435"></polygon>
                <path d="M52.224194,0.0545715708 C58.2001511,0.0545715708 61.7510958,0.0545715708 62.877028,0.0545715708 C71.6759835,0.252402209 75.9911527,7.19242385 75.9519426,13.7713352 C75.9127324,20.3502466 72.1874362,26.380509 64.1592121,27.4880989 C62.8701838,27.4880989 58.8918445,27.4880989 52.224194,27.4880989 L52.224194,0.0545715708 Z M59.2083847,6.4022745 L59.2083847,21.0967778 C60.8376175,21.0967778 62.0179953,21.0967778 62.7495179,21.0967778 C66.8964774,21.0967778 69.1685295,17.2424233 69.1041902,13.7485404 C69.039851,10.2546575 67.3493363,6.77732593 62.7495179,6.4022745 C62.1105522,6.4022745 60.9301744,6.4022745 59.2083847,6.4022745 Z" id="Combined-Shape"></path>
                <path d="M81.9392284,0.0546261523 C87.9151855,0.0546261523 91.4661301,0.0546261523 92.5920623,0.0546261523 C101.391018,0.25245679 105.706187,7.19247843 105.666977,13.7713898 C105.627767,20.3503012 101.902471,26.3805636 93.8742464,27.4881535 C92.5852182,27.4881535 88.6068789,27.4881535 81.9392284,27.4881535 L81.9392284,0.0546261523 Z M88.923419,6.40232908 L88.923419,21.0968324 C90.5526519,21.0968324 91.7330297,21.0968324 92.4645523,21.0968324 C96.6115118,21.0968324 98.8835638,17.2424779 98.8192246,13.748595 C98.7548854,10.2547121 97.0643707,6.77738052 92.4645523,6.40232908 C91.8255866,6.40232908 90.6452088,6.40232908 88.923419,6.40232908 Z" id="Combined-Shape"></path>
                <polygon id="Rectangle-3" points="111.655855 0.0546261523 129.136476 0.0546261523 129.136476 6.34773428 118.593672 6.34773428 118.593672 10.2289944 127.940919 10.2289944 127.940919 16.3985138 118.593672 16.3985138 118.593672 21.2605737 129.136476 21.2605737 129.136476 27.4880435 111.655855 27.4880435"></polygon>
                <path d="M135.800615,0.0546261523 C144.254703,0.0546261523 148.490153,0.0546261523 148.506965,0.0546261523 C153.950555,0.415845303 156.771113,4.00146249 157.525308,7.84830207 C158.301472,11.807191 156.508966,15.9422077 153.632167,17.7760609 C153.662486,17.8231162 155.783072,21.0604525 159.993924,27.4880697 L151.165086,27.4880697 L146.446611,19.4035819 L142.819479,19.4035819 L142.819479,27.4880697 L135.800615,27.4880697 L135.800615,0.0546261523 Z M142.80716,6.33159415 L142.80716,13.1847532 C146.349676,13.1847532 148.145497,13.1847532 148.194622,13.1847532 C150.00533,12.8640339 150.719917,11.1469937 150.719917,9.66459874 C150.719917,8.3352537 150.128903,6.68788764 148.194622,6.33159415 C148.180046,6.33159415 146.384225,6.33159415 142.80716,6.33159415 Z" id="Combined-Shape"></path>
            </g>
        </g>
    </g>
</svg>