<?xml version="1.0" standalone="no"?>
<!DOCTYPE svg PUBLIC "-//W3C//DTD SVG 1.1//EN" "http://www.w3.org/Graphics/SVG/1.1/DTD/svg11.dtd" >
<svg xmlns="http://www.w3.org/2000/svg">
<metadata>Generated by IcoMoon</metadata>
<defs>
<font id="icomoon" horiz-adv-x="1024">
<font-face units-per-em="1024" ascent="960" descent="-64" />
<missing-glyph horiz-adv-x="1024" />
<glyph unicode="&#x20;" horiz-adv-x="512" d="" />
<glyph unicode="&#xe900;" glyph-name="arrow-down" horiz-adv-x="1707" d="M1558.576 934.032l-705.831-706.001-705.831 706.086c-33.652 33.652-88.088 33.652-121.74 0-33.567-33.652-33.567-88.173 0-121.825l766.662-766.917c33.567-33.652 88.088-33.652 121.655 0l766.662 766.909c33.567 33.652 33.567 88.258 0 121.91-33.482 33.489-88.010 33.489-121.577-0.163z" />
<glyph unicode="&#xe901;" glyph-name="arrow-right" horiz-adv-x="1425" d="M944.083 945.174c-19.1 19.768-50.888 19.768-70.656 0-19.1-19.1-19.1-50.888 0-69.944l358.266-358.266h-1182.23c-27.559-0.045-49.464-21.949-49.464-49.508s21.905-50.176 49.464-50.176h1182.23l-358.266-357.599c-19.1-19.768-19.1-51.601 0-70.656 19.768-19.768 51.601-19.768 70.656 0l443.080 443.080c19.768 19.1 19.768 50.888 0 69.944l-443.080 443.125z" />
<glyph unicode="&#xe902;" glyph-name="arrow-up" horiz-adv-x="696" d="M15.575 608.43c-13.64-13.179-13.64-35.113 0-48.753 13.179-13.179 35.113-13.179 48.261 0l247.204 247.204v-815.739c0.031-19.016 15.145-34.13 34.161-34.13s34.621 15.114 34.621 34.13v815.739l246.743-247.204c13.64-13.179 35.604-13.179 48.753 0 13.64 13.64 13.64 35.604 0 48.753l-305.725 305.725c-13.179 13.64-35.113 13.64-48.261 0l-305.756-305.725z" />
<glyph unicode="&#xe903;" glyph-name="cart" d="M307.2 140.8c-56.32 0-102.4-46.080-102.4-102.4s46.080-102.4 102.4-102.4c56.32 0 102.4 46.080 102.4 102.4s-46.080 102.4-102.4 102.4zM0 960v-102.4h102.4l184.32-389.12-71.68-122.88c-5.12-15.36-10.24-35.84-10.24-51.2 0-56.32 46.080-102.4 102.4-102.4h614.4v102.4h-593.92c-5.12 0-10.24 5.12-10.24 10.24v5.122l46.080 87.040h378.88c40.96 0 71.68 20.48 87.040 51.2l184.32 332.798c10.24 10.24 10.24 15.36 10.24 25.6 0 30.72-20.48 51.2-51.2 51.2h-757.76l-46.080 102.4h-168.96zM819.2 140.8c-56.32 0-102.4-46.080-102.4-102.4s46.080-102.4 102.4-102.4c56.32 0 102.4 46.080 102.4 102.4s-46.080 102.4-102.4 102.4z" />
<glyph unicode="&#xe904;" glyph-name="favorite" d="M512-47.901l-71.68 74.797c-266.24 245.76-440.32 411.381-440.32 614.4 0 165.621 122.88 293.843 281.6 293.843 87.040 0 174.080-42.741 230.4-112.195 56.32 69.454 143.36 112.195 230.4 112.195 158.72 0 281.6-128.223 281.6-293.843 0-203.019-174.080-368.64-440.32-614.4l-71.68-74.797z" />
<glyph unicode="&#xe905;" glyph-name="fb" horiz-adv-x="555" d="M529.463 959.788l-131.963 0.212c-148.256 0-244.066-98.298-244.066-250.439v-115.469h-132.683c-11.465 0-20.75-9.295-20.75-20.761v-167.302c0-11.465 9.295-20.75 20.75-20.75h132.683v-422.156c0-11.465 9.285-20.75 20.75-20.75h173.114c11.465 0 20.75 9.295 20.75 20.75v422.156h155.138c11.465 0 20.75 9.285 20.75 20.75l0.064 167.302c0 5.505-2.191 10.777-6.077 14.673s-9.179 6.087-14.684 6.087h-155.191v97.885c0 47.047 11.211 70.931 72.498 70.931l88.897 0.032c11.455 0 20.739 9.295 20.739 20.75v155.349c0 11.444-9.274 20.729-20.718 20.75z" />
<glyph unicode="&#xe906;" glyph-name="ig" d="M737.316 960h-456.294c-154.955 0-281.022-126.072-281.022-281.028v-456.294c0-154.961 126.066-281.028 281.022-281.028h456.294c154.967 0 281.034 126.072 281.034 281.028v456.294c0.006 154.955-126.066 281.028-281.034 281.028zM928.003 222.678c0-105.141-85.54-190.675-190.681-190.675h-456.3c-105.135-0.006-190.669 85.534-190.669 190.675v456.294c0 105.135 85.534 190.675 190.669 190.675h456.294c105.141 0 190.681-85.54 190.681-190.675v-456.294h0.006zM509.175 713.216c-144.691 0-262.403-117.712-262.403-262.403 0-144.685 117.712-262.391 262.403-262.391s262.403 117.706 262.403 262.391c0 144.691-117.712 262.403-262.403 262.403zM509.175 278.781c-94.865 0-172.050 77.173-172.050 172.038 0 94.871 77.179 172.050 172.050 172.050s172.050-77.179 172.050-172.050c0-94.865-77.186-172.038-172.050-172.038zM782.583 789.829c-17.408 0-34.509-7.048-46.803-19.396-12.354-12.288-19.456-29.395-19.456-46.863 0-17.414 7.108-34.515 19.456-46.863 12.288-12.288 29.395-19.396 46.803-19.396 17.468 0 34.515 7.108 46.863 19.396 12.348 12.348 19.396 29.455 19.396 46.863 0 17.468-7.048 34.575-19.396 46.863-12.288 12.348-29.395 19.396-46.863 19.396z" />
<glyph unicode="&#xe907;" glyph-name="ok" horiz-adv-x="640" d="M256.437 242.624c-78.955 8.235-150.144 27.68-211.093 75.349-7.563 5.931-15.371 11.648-22.272 18.272-26.677 25.621-29.365 54.965-8.256 85.205 18.059 25.877 48.373 32.8 79.883 17.941 6.101-2.88 11.915-6.475 17.483-10.336 113.589-78.048 269.632-80.203 383.648-3.509 11.296 8.661 23.371 15.723 37.365 19.328 27.211 6.987 52.587-3.008 67.189-26.816 16.683-27.189 16.469-53.728-4.085-74.837-31.531-32.363-69.451-55.776-111.584-72.117-39.84-15.445-83.477-23.221-126.667-28.384 6.517-7.093 9.589-10.581 13.664-14.677 58.645-58.923 117.547-117.6 176-176.704 19.915-20.139 24.075-45.109 13.109-68.533-11.989-25.6-38.827-42.443-65.141-40.64-16.672 1.152-29.675 9.451-41.227 21.088-44.256 44.533-89.344 88.245-132.704 133.621-12.619 13.195-18.688 10.699-29.824-0.757-44.523-45.835-89.771-90.965-135.285-135.84-20.437-20.149-44.757-23.776-68.459-12.267-25.195 12.213-41.227 37.931-39.989 63.776 0.853 17.483 9.451 30.837 21.451 42.816 58.037 57.952 115.915 116.053 173.813 174.101 3.829 3.861 7.403 7.957 12.981 13.92zM304.533 444.491c-140.853 0.48-256.352 117.248-255.531 258.325 0.811 142.635 116.384 257.579 258.624 257.184 142.528-0.384 256.928-116.981 256.213-261.099-0.725-140.789-117.024-254.901-259.307-254.411zM432.544 702.475c-0.245 70.048-56.032 125.813-125.941 125.877-70.496 0.075-126.784-56.704-126.24-127.392 0.523-69.781 56.789-125.152 126.891-124.896 69.888 0.245 125.525 56.373 125.291 126.411z" />
<glyph unicode="&#xe908;" glyph-name="phone" d="M1021.023 154.356c2.165-16.583-2.889-31.002-15.14-43.256l-143.826-142.74c-6.488-7.209-14.958-13.343-25.411-18.384-10.454-5.048-20.725-8.293-30.815-9.733-0.721 0-2.889-0.186-6.495-0.546-3.599-0.359-8.285-0.542-14.053-0.542-13.701 0-35.872 2.343-66.511 7.031s-68.126 16.225-112.46 34.605c-44.344 18.384-94.628 45.963-150.859 82.727-56.231 36.762-116.070 87.231-179.513 151.396-50.465 49.744-92.28 97.326-125.442 142.743-33.163 45.421-59.838 87.415-80.024 125.985-20.188 38.57-35.328 73.535-45.421 104.896s-16.942 58.396-20.547 81.105c-3.605 22.709-5.047 40.553-4.326 53.529s1.081 20.186 1.081 21.628c1.442 10.093 4.686 20.366 9.733 30.82s11.174 18.925 18.384 25.413l143.826 143.826c10.093 10.093 21.628 15.14 34.605 15.14 9.372 0 17.663-2.704 24.872-8.111s13.337-12.076 18.384-20.006l115.71-219.524c6.488-11.535 8.291-24.151 5.407-37.849s-9.012-25.233-18.384-34.605l-52.989-52.989c-1.442-1.442-2.704-3.785-3.785-7.029s-1.622-5.948-1.622-8.111c2.884-15.14 9.372-32.442 19.465-51.907 8.651-17.302 21.988-38.39 40.012-63.262s43.616-53.528 76.779-85.97c32.442-33.166 61.279-58.936 86.512-77.324 25.227-18.377 46.322-31.9 63.264-40.551s29.919-13.878 38.929-15.675l13.514-2.705c1.442 0 3.79 0.542 7.031 1.622 3.244 1.083 5.587 2.343 7.031 3.787l61.638 62.721c12.984 11.533 28.116 17.301 45.421 17.301 12.259 0 21.987-2.161 29.196-6.488h1.080l208.709-123.28c15.145-9.379 24.155-21.271 27.040-35.69z" />
<glyph unicode="&#xe909;" glyph-name="refresh" horiz-adv-x="1138" d="M641.116 958.884c-240.729 0-441.838-172.189-487.036-399.776l-94.404 118.016-59.676-47.756 152.82-191.024c7.449-9.284 18.529-14.327 29.838-14.327 5.769 0 11.613 1.3 17.078 4.011l229.229 114.616-34.193 68.349-168.444-84.204c31.251 201.111 205.044 355.687 414.789 355.687 231.713 0 420.253-188.54 420.253-420.253s-188.54-420.253-420.253-420.253v-76.409c273.851 0 496.662 222.811 496.662 496.662s-222.811 496.662-496.662 496.662z" />
<glyph unicode="&#xe90a;" glyph-name="ruble" horiz-adv-x="970" d="M154.139 367.266h-154.139v144.33h154.139v448.404h421.78c105.095 0 187.769-28.025 249.425-82.675s92.483-124.712 92.483-212.992c0-88.28-30.828-159.744-92.483-214.393s-144.33-82.675-249.425-82.675h-221.4v-92.483h355.921v-144.33h-355.921v-151.336h-200.381v151.336h-154.139v144.33h154.139v92.483zM354.52 783.441v-271.845h194.776c102.292 0 165.349 50.445 165.349 135.923 0 88.28-63.057 135.923-165.349 135.923h-194.776z" />
<glyph unicode="&#xe90b;" glyph-name="vk" horiz-adv-x="1707" d="M1695.634 79.316c-2.064 4.449-3.988 8.139-5.776 11.095-29.576 53.267-86.095 118.649-169.523 196.164l-1.763 1.775-0.883 0.87-0.892 0.892h-0.895c-37.864 36.095-61.841 60.364-71.882 72.79-18.372 23.67-22.488 47.628-12.447 71.904 7.094 18.341 33.742 57.075 79.881 116.255 24.269 31.363 43.49 56.5 57.685 75.438 102.372 136.098 146.755 223.067 133.139 260.94l-5.288 8.85c-3.553 5.328-12.724 10.203-27.499 14.648-14.81 4.436-33.739 5.17-56.82 2.213l-255.608-1.766c-4.141 1.467-10.053 1.331-17.757-0.448-7.694-1.778-11.543-2.67-11.543-2.67l-4.449-2.223-3.531-2.67c-2.959-1.766-6.214-4.871-9.767-9.311-3.535-4.424-6.491-9.615-8.854-15.531-27.829-71.596-59.469-138.162-94.98-199.696-21.894-36.692-42.001-68.49-60.364-95.415-18.338-26.915-33.723-46.745-46.139-59.457-12.435-12.724-23.657-22.917-33.735-30.617-10.063-7.703-17.744-10.958-23.063-9.767-5.331 1.191-10.352 2.372-15.105 3.553-8.278 5.328-14.937 12.575-19.958 21.745-5.042 9.171-8.437 20.713-10.212 34.618-1.766 13.914-2.81 25.883-3.109 35.946-0.277 10.050-0.149 24.266 0.451 42.608 0.616 18.351 0.892 30.767 0.892 37.276 0 22.488 0.438 46.894 1.318 73.225 0.895 26.331 1.62 47.193 2.226 62.562 0.603 15.385 0.883 31.662 0.883 48.822s-1.045 30.617-3.109 40.385c-2.039 9.755-5.17 19.224-9.295 28.404-4.15 9.171-10.224 16.265-18.195 21.301-7.986 5.030-17.915 9.021-29.731 11.987-31.363 7.097-71.301 10.936-119.83 11.533-110.050 1.181-180.764-5.925-212.124-21.31-12.425-6.5-23.67-15.382-33.723-26.617-10.653-13.022-12.139-20.129-4.449-21.298 35.507-5.319 60.644-18.043 75.438-38.159l5.331-10.66c4.147-7.691 8.288-21.307 12.432-40.829 4.138-19.523 6.808-41.119 7.983-64.776 2.953-43.201 2.953-80.182 0-110.946-2.963-30.776-5.76-54.735-8.431-71.894s-6.662-31.065-11.984-41.712c-5.331-10.65-8.878-17.16-10.657-19.523-1.775-2.363-3.255-3.852-4.43-4.436-7.691-2.947-15.69-4.449-23.968-4.449-8.291 0-18.344 4.147-30.176 12.435-11.829 8.288-24.105 19.672-36.829 34.171-12.724 14.502-27.074 34.768-43.055 60.8-15.969 26.032-32.539 56.799-49.699 92.3l-14.197 25.746c-8.875 16.563-20.999 40.68-36.384 72.33-15.394 31.662-29.001 62.289-40.829 91.874-4.728 12.425-11.832 21.885-21.298 28.395l-4.442 2.67c-2.953 2.363-7.694 4.871-14.197 7.545-6.513 2.67-13.308 4.585-20.415 5.763l-243.189-1.766c-24.851 0-41.712-5.63-50.591-16.874l-3.553-5.319c-1.775-2.963-2.67-7.694-2.67-14.207 0-6.51 1.775-14.499 5.328-23.959 35.501-83.437 74.108-163.905 115.82-241.417s77.96-139.95 108.72-187.258c30.767-47.342 62.127-92.023 94.081-134.022 31.954-42.014 53.106-68.938 63.454-80.767 10.361-11.85 18.5-20.71 24.416-26.626l22.193-21.298c14.2-14.204 35.054-31.214 62.568-51.032 27.521-19.83 57.989-39.353 91.42-58.599 33.437-19.215 72.336-34.895 116.719-47.022 44.376-12.139 87.568-17.011 129.582-14.661h102.070c20.701 1.787 36.384 8.297 47.044 19.532l3.531 4.449c2.375 3.531 4.598 9.018 6.649 16.401 2.077 7.396 3.109 15.543 3.109 24.406-0.606 25.438 1.331 48.365 5.757 68.776 4.424 20.405 9.466 35.79 15.105 46.152 5.636 10.352 11.996 19.087 19.075 26.169 7.094 7.097 12.149 11.396 15.114 12.876 2.947 1.489 5.3 2.499 7.075 3.106 14.2 4.731 30.913 0.149 50.162-13.768 19.233-13.905 37.273-31.074 54.147-51.48 16.865-20.424 37.127-43.338 60.79-68.776 23.679-25.448 44.383-44.364 62.127-56.808l17.744-10.65c11.85-7.106 27.235-13.616 46.173-19.532 18.904-5.913 35.467-7.392 49.689-4.436l227.204 3.544c22.473 0 39.959 3.721 52.363 11.104 12.429 7.396 19.812 15.543 22.193 24.406 2.375 8.872 2.502 18.938 0.451 30.192-2.105 11.225-4.178 19.075-6.242 23.511z" />
<glyph unicode="&#xe90c;" glyph-name="arrow-left" horiz-adv-x="1418" d="M455.705 945.246c19.008 19.673 50.644 19.673 70.316 0 19.008-19.008 19.008-50.644 0-69.607l-356.544-356.544h1176.546c27.426-0.044 49.226-21.844 49.226-49.27s-21.799-49.935-49.226-49.935h-1176.546l356.544-355.879c19.008-19.673 19.008-51.353 0-70.316-19.673-19.673-51.353-19.673-70.316 0l-440.95 440.95c-19.673 19.008-19.673 50.644 0 69.607l440.95 440.994z" />
<glyph unicode="&#xe90d;" glyph-name="close" d="M595.383 428.983l393.509 394.24c10.705 8.376 17.521 21.295 17.521 35.807 0 25.045-20.303 45.349-45.349 45.349-14.512 0-27.431-6.816-35.732-17.421l-0.075-0.099-394.24-394.24-394.24 394.24c-8.344 9.349-20.429 15.207-33.881 15.207-25.045 0-45.349-20.303-45.349-45.349 0-13.635 6.018-25.865 15.542-34.178l0.054-0.046 394.24-393.509-394.24-394.24c-5.95-7.599-9.542-17.294-9.542-27.828 0-25.045 20.303-45.349 45.349-45.349 10.534 0 20.229 3.592 27.927 9.617l-0.099-0.075 394.971 393.509 393.509-393.509c8.376-10.705 21.295-17.521 35.807-17.521 25.045 0 45.349 20.303 45.349 45.349 0 14.512-6.816 27.431-17.421 35.732l-0.099 0.075z" />
<glyph unicode="&#xe90e;" glyph-name="favourite-empty" horiz-adv-x="1067" d="M587.557 81.451c326.734 301.601 415.11 413.8 415.11 573.124 0 147.136-108.417 260.267-248.533 260.267-76.654 0-154.096-37.798-204.23-99.623l-16.57-20.434-16.57 20.434c-50.134 61.825-127.576 99.623-204.23 99.623-140.117 0-248.533-113.13-248.533-260.267 0-159.325 88.376-271.523 416.042-574.039l53.297-55.614 54.217 56.529zM754.133 957.508c164.097 0 291.2-132.63 291.2-302.933 0-176.718-92.091-293.634-427.904-603.561l-84.096-87.752-83.163 86.837c-336.746 310.842-428.837 427.758-428.837 604.476 0 170.304 127.103 302.933 291.2 302.933 81.534 0 162.981-36.144 220.8-96.612 57.819 60.468 139.266 96.612 220.8 96.612z" />
<glyph unicode="&#xe90f;" glyph-name="button-arrow" horiz-adv-x="1195" d="M1173.197 509.55l-430.565 430.574c-12.291 12.291-28.672 19.037-46.139 19.037-17.486 0-33.858-6.756-46.149-19.037l-39.092-39.102c-12.281-12.271-19.047-28.662-19.047-46.139 0-17.467 6.766-34.41 19.047-46.682l251.185-251.738h-798.028c-35.981 0-64.41-28.168-64.41-64.158v-55.279c0-35.99 28.43-66.998 64.41-66.998h800.877l-254.025-253.143c-12.281-12.291-19.047-28.236-19.047-45.712 0-17.457 6.766-33.635 19.047-45.916l39.092-38.976c12.291-12.291 28.662-18.989 46.149-18.989 17.467 0 33.848 6.785 46.139 19.076l430.565 430.565c12.32 12.33 19.095 28.788 19.047 46.284 0.039 17.554-6.727 34.023-19.057 46.333z" />
<glyph unicode="&#xe910;" glyph-name="minus" horiz-adv-x="10240" d="M0-64v1024h10240v-1024z" />
<glyph unicode="&#xe911;" glyph-name="plus" horiz-adv-x="1126" d="M51.2 396.8v102.4h1024v-102.4zM512 960h102.4v-1024h-102.4z" />
<glyph unicode="&#xe912;" glyph-name="rub-medium" horiz-adv-x="945" d="M180.066 351.429h-147.456v110.592h147.456v466.471h412.593c103.503 0 184.32-26.939 242.452-80.817 59.55-52.46 89.324-121.935 89.324-207.006 0-86.489-29.775-157.381-89.324-209.841-58.132-52.46-138.949-79.399-242.452-79.399h-256.63v-117.681h387.072v-110.592h-387.072v-187.156h-155.963v187.156h-147.456v110.592h147.456v117.681zM336.030 788.126v-326.105h242.452c119.099 0 189.991 60.967 189.991 163.052 0 103.503-70.892 163.052-189.991 163.052h-242.452z" />
<glyph unicode="&#xe913;" glyph-name="rub-regular" horiz-adv-x="945" d="M279.316-64h-104.921v222.602h-140.367v89.324h140.367v131.86h-140.367v89.324h140.367v459.382h395.579c197.081 0 314.762-107.756 314.762-272.226 0-165.888-116.263-276.48-314.762-276.48h-290.658v-131.86h412.593v-89.324h-412.593v-222.602zM279.316 833.497v-364.386h282.151c140.367 0 219.766 63.803 219.766 181.484 0 114.846-79.399 182.902-219.766 182.902h-282.151z" />
<glyph unicode="&#xe914;" glyph-name="calendar" horiz-adv-x="945" d="M928.352 892.484h-118.154v50.637c0 9.334-7.545 16.879-16.879 16.879h-118.154c-9.334 0-16.879-7.545-16.879-16.879v-50.637h-371.341v50.637c0 9.334-7.545 16.879-16.879 16.879h-118.154c-9.334 0-16.879-7.545-16.879-16.879v-50.637h-118.154c-9.334 0-16.879-7.545-16.879-16.879v-911.473c0-9.334 7.545-16.879 16.879-16.879h911.473c9.334 0 16.879 7.545 16.879 16.879v911.473c0 9.334-7.545 16.879-16.879 16.879zM692.044 926.242h84.396v-101.275h-84.396v101.275zM168.791 926.242h84.396v-101.275h-84.396v101.275zM33.758 858.725h101.275v-50.637c0-9.334 7.545-16.879 16.879-16.879h118.154c9.334 0 16.879 7.545 16.879 16.879v50.637h371.341v-50.637c0-9.334 7.545-16.879 16.879-16.879h118.154c9.334 0 16.879 7.545 16.879 16.879v50.637h101.275v-151.912h-877.714v151.912zM33.758-18.989v692.044h877.714v-692.044h-877.714zM607.648 571.78h-455.736v-489.495h641.407v489.495h-185.67zM489.495 538.022h118.154v-118.154h-118.154v118.154zM607.648 267.956h-118.154v118.154h118.154v-118.154zM337.582 386.11h118.154v-118.154h-118.154v118.154zM337.582 538.022h118.154v-118.154h-118.154v118.154zM185.67 538.022h118.154v-118.154h-118.154v118.154zM185.67 386.11h118.154v-118.154h-118.154v118.154zM303.824 116.044h-118.154v118.154h118.154v-118.154zM455.736 116.044h-118.154v118.154h118.154v-118.154zM607.648 116.044h-118.154v118.154h118.154v-118.154zM759.56 116.044h-118.154v118.154h118.154v-118.154zM759.56 267.956h-118.154v118.154h118.154v-118.154zM759.56 538.022v-118.154h-118.154v118.154h118.154z" />
<glyph unicode="&#xe915;" glyph-name="clock" d="M512 960c-282.317 0-512-229.683-512-512s229.683-512 512-512c282.317 0 512 229.683 512 512s-229.683 512-512 512zM512-29.867c-263.492 0-477.867 214.374-477.867 477.867s214.374 477.867 477.867 477.867c263.492 0 477.867-214.374 477.867-477.867s-214.374-477.867-477.867-477.867zM529.067 515.908v173.090c0 9.438-7.646 17.067-17.067 17.067s-17.067-7.629-17.067-17.067v-173.090c-23.876-6.212-42.564-24.9-48.777-48.777h-121.89c-9.421 0-17.067-7.629-17.067-17.067s7.646-17.067 17.067-17.067h121.89c7.629-29.355 34.133-51.2 65.843-51.2 37.649 0 68.267 30.618 68.267 68.267 0 31.727-21.845 58.214-51.2 65.843zM512 415.932c-18.825 0-34.133 15.309-34.133 34.133s15.309 34.133 34.133 34.133c18.825 0 34.133-15.309 34.133-34.133s-15.309-34.133-34.133-34.133zM512 791.398c9.421 0 17.067 7.629 17.067 17.067v17.067c0 9.438-7.646 17.067-17.067 17.067s-17.067-7.629-17.067-17.067v-17.067c0-9.438 7.646-17.067 17.067-17.067zM512 108.732c-9.421 0-17.067-7.629-17.067-17.067v-17.067c0-9.438 7.646-17.067 17.067-17.067s17.067 7.629 17.067 17.067v17.067c0 9.438-7.646 17.067-17.067 17.067zM887.467 467.132h-17.067c-9.421 0-17.067-7.629-17.067-17.067s7.646-17.067 17.067-17.067h17.067c9.421 0 17.067 7.629 17.067 17.067s-7.646 17.067-17.067 17.067zM153.6 467.132h-17.067c-9.421 0-17.067-7.629-17.067-17.067s7.646-17.067 17.067-17.067h17.067c9.421 0 17.067 7.629 17.067 17.067s-7.646 17.067-17.067 17.067zM765.423 727.637l-12.066-12.066c-6.673-6.673-6.673-17.459 0-24.132 3.328-3.328 7.697-5.001 12.066-5.001s8.738 1.673 12.066 5.001l12.066 12.066c6.673 6.673 6.673 17.459 0 24.132s-17.459 6.656-24.132 0zM246.511 208.708l-12.066-12.066c-6.673-6.673-6.673-17.459 0-24.132 3.328-3.328 7.697-5.001 12.066-5.001s8.738 1.673 12.066 5.001l12.066 12.066c6.673 6.673 6.673 17.459 0 24.132s-17.476 6.656-24.132 0zM777.489 208.708c-6.673 6.673-17.459 6.673-24.132 0s-6.673-17.459 0-24.132l12.066-12.066c3.328-3.328 7.697-5.001 12.066-5.001s8.738 1.673 12.066 5.001c6.673 6.673 6.673 17.459 0 24.132l-12.066 12.066zM258.577 727.637c-6.673 6.673-17.459 6.673-24.132 0s-6.673-17.459 0-24.132l12.066-12.066c3.328-3.328 7.697-5.001 12.066-5.001s8.738 1.673 12.066 5.001c6.673 6.673 6.673 17.459 0 24.132l-12.066 12.066z" />
<glyph unicode="&#xe916;" glyph-name="checked" d="M11.815 408.615c-7.877 7.877-11.815 19.692-11.815 27.569s3.938 19.692 11.815 27.569l55.138 55.138c15.754 15.754 39.385 15.754 55.138 0l3.938-3.938 216.615-232.369c7.877-7.877 19.692-7.877 27.569 0l527.754 547.446h3.938c15.754 15.754 39.385 15.754 55.138 0l55.138-55.138c15.754-15.754 15.754-39.385 0-55.138v0l-630.154-653.785c-7.877-7.877-15.754-11.815-27.569-11.815s-19.692 3.938-27.569 11.815l-307.2 330.831-7.877 11.815z" />
<glyph unicode="&#xe917;" glyph-name="cancel_1" d="M659.288 431.635c-9.352 9.352-9.352 23.379 0 32.731l350.685 350.685c9.352 9.352 14.027 23.379 14.027 32.731s-4.676 23.379-14.027 32.731l-65.461 65.461c-9.352 9.352-23.379 14.027-32.731 14.027-14.027 0-23.379-4.676-32.731-14.027l-350.685-350.685c-9.352-9.352-23.379-9.352-32.731 0l-350.685 350.685c-9.352 9.352-23.379 14.027-32.731 14.027s-23.379-4.676-32.731-14.027l-65.461-65.461c-9.352-9.352-14.027-23.379-14.027-32.731s4.676-23.379 14.027-32.731l350.685-350.685c9.352-9.352 9.352-23.379 0-32.731l-350.685-350.685c-9.352-9.352-14.027-23.379-14.027-32.731s4.676-23.379 14.027-32.731l65.461-65.461c9.352-9.352 23.379-14.027 32.731-14.027s23.379 4.676 32.731 14.027l350.685 350.685c9.352 9.352 23.379 9.352 32.731 0l350.685-350.685c9.352-9.352 23.379-14.027 32.731-14.027s23.379 4.676 32.731 14.027l65.461 65.461c9.352 9.352 14.027 23.379 14.027 32.731s-4.676 23.379-14.027 32.731l-350.685 350.685z" />
<glyph unicode="&#xe918;" glyph-name="credit-card" horiz-adv-x="1331" d="M1016.503 767.67h-891.006c-69.146 0-125.498-56.351-125.498-125.498v-542.825c0-69.146 56.351-125.498 125.498-125.498h891.006c69.146 0 125.498 56.351 125.498 125.498v542.825c0 69.146-56.351 125.498-125.498 125.498zM1043.998 99.076c0-14.973-12.25-27.495-27.495-27.495h-891.006c-15.245 0-27.495 12.25-27.495 27.495v396.638h945.996v-396.638zM1043.998 593.716h-945.996v48.457c0 15.245 12.25 27.495 27.495 27.495h891.006c15.245 0 27.495-12.25 27.495-27.495v-48.457zM1205.158 958.503h-891.006c-26.951 0-49.001-22.051-49.001-49.001s22.051-49.001 49.001-49.001h891.006c15.245 0 27.495-12.25 27.495-27.495v-152.993c0-26.951 22.051-49.001 49.001-49.001s49.001 22.051 49.001 49.001v152.993c0 69.146-56.351 125.498-125.498 125.498zM629.666 407.511h-66.968c-26.951 0-49.001-22.051-49.001-49.001s22.051-49.001 49.001-49.001h66.968c26.951 0 49.001 22.051 49.001 49.001s-21.778 49.001-49.001 49.001zM405.349 407.511h-182.393c-26.951 0-49.001-22.051-49.001-49.001s22.051-49.001 49.001-49.001h182.393c26.951 0 49.001 22.051 49.001 49.001s-22.051 49.001-49.001 49.001zM329.669 245.535h-105.080c-26.951 0-49.001-22.051-49.001-49.001s22.051-49.001 49.001-49.001h105.080c26.951 0 49.001 22.051 49.001 49.001s-22.051 49.001-49.001 49.001z" />
</font>
</defs>
</svg>
